<?xml version="1.0" encoding="UTF-8" standalone="no"?>
<!-- Created with Inkscape (http://www.inkscape.org/) -->

<svg
   xmlns:dc="http://purl.org/dc/elements/1.1/"
   xmlns:cc="http://creativecommons.org/ns#"
   xmlns:rdf="http://www.w3.org/1999/02/22-rdf-syntax-ns#"
   xmlns:svg="http://www.w3.org/2000/svg"
   xmlns="http://www.w3.org/2000/svg"
   xmlns:sodipodi="http://sodipodi.sourceforge.net/DTD/sodipodi-0.dtd"
   xmlns:inkscape="http://www.inkscape.org/namespaces/inkscape"
   version="1.1"
   id="svg855"
   width="468.99588"
   height="450.13333"
   viewBox="0 0 468.99588 450.13333"
   sodipodi:docname="tcsellesIcone.svg"
   inkscape:version="0.92.3 (2405546, 2018-03-11)">
  <metadata
     id="metadata861">
    <rdf:RDF>
      <cc:Work
         rdf:about="">
        <dc:format>image/svg+xml</dc:format>
        <dc:type
           rdf:resource="http://purl.org/dc/dcmitype/StillImage" />
        <dc:title></dc:title>
      </cc:Work>
    </rdf:RDF>
  </metadata>
  <defs
     id="defs859" />
  <sodipodi:namedview
     pagecolor="#ffffff"
     bordercolor="#666666"
     borderopacity="1"
     objecttolerance="10"
     gridtolerance="10"
     guidetolerance="10"
     inkscape:pageopacity="0"
     inkscape:pageshadow="2"
     inkscape:window-width="1280"
     inkscape:window-height="996"
     id="namedview857"
     showgrid="false"
     inkscape:zoom="0.56725035"
     inkscape:cx="84.469811"
     inkscape:cy="111.74664"
     inkscape:window-x="1920"
     inkscape:window-y="0"
     inkscape:window-maximized="1"
     inkscape:current-layer="svg855" />
  <path
     style="fill:#ffffff;stroke-width:1.06666672"
     d="m 181.54358,446.23265 c 1.46129,-9.00489 16.35913,-25.61185 35.47059,-39.53989 5.81655,-4.23899 23.64338,-16.82683 39.61518,-27.97299 93.16309,-65.01523 133.71018,-97.95375 149.15573,-121.16695 20.56217,-30.90305 21.96241,-69.71069 3.77165,-104.53101 -8.66206,-16.58068 -21.34005,-31.59274 -37.96701,-44.95685 -22.0382,-17.71348 -44.50355,-27.35446 -70.54778,-30.27551 -12.69778,-1.42415 -18.0752,-0.81492 -29.59327,3.35281 -18.54871,6.71171 -36.72129,22.18069 -55.73586,47.44384 -3.28987,4.37097 -6.20553,7.94723 -6.47926,7.94723 -0.27374,0 2.62681,-5.93774 6.44567,-13.19498 34.35606,-65.28921 68.91582,-100.54471 102.57717,-104.6422 17.19034,-2.09252 49.53711,10.93533 75.38004,30.35977 42.08528,31.63275 68.45164,81.30328 74.54854,140.439 1.5368,14.90593 0.81127,38.34531 -1.51761,49.0282 -4.71274,21.61804 -12.63628,34.10643 -31.76261,50.06149 -22.79955,19.01923 -128.03828,90.3525 -184.70779,125.19926 -26.53543,16.31695 -64.27595,36.34946 -68.48106,36.34946 -0.44292,0 -0.52047,-1.7553 -0.17232,-3.90068 z m 119.11281,2.56193 c 24.73104,-11.0767 37.53352,-18.32998 53.2493,-30.16851 12.02638,-9.05935 24.05482,-20.5983 31.15411,-29.8863 8.08611,-10.57906 17.05755,-27.36771 15.47193,-28.95332 -0.37316,-0.37316 -8.95777,1.77787 -19.07691,4.78005 -19.51161,5.78878 -25.12952,7.269 -24.2651,6.39335 0.29333,-0.29713 7.25333,-4.72972 15.46667,-9.85019 28.86112,-17.99298 54.688,-37.39981 74.01454,-55.61601 10.97947,-10.34868 10.95269,-10.37666 4.69653,4.90635 -6.18077,15.09886 -15.94599,33.31985 -25.8578,48.24822 -30.82273,46.42276 -69.46141,76.15433 -115.29624,88.71779 -10.63237,2.91436 -13.99744,3.41737 -9.55703,1.42857 z M 110.22558,423.63763 C 71.647153,398.52515 39.639103,362.69735 21.243513,324.03668 10.143493,300.70856 5.8780833,284.92538 10.223083,283.25805 c 1.00835,-0.38695 8.08835,-0.14219 15.73333,0.54389 43.17097,3.87431 77.514777,-9.12179 112.888217,-42.71822 l 10.45492,-9.92971 -5.12159,8.77235 c -7.99144,13.68791 -17.38563,25.49421 -29.45321,37.01582 -17.420697,16.63253 -37.653427,29.04331 -57.245557,35.11449 -15.42864,4.781 -14.25069,3.74578 -13.63684,11.98443 1.05016,14.0945 10.66872,32.95583 27.30492,53.54306 4.49668,5.56462 17.48404,19.60462 28.860787,31.2 11.37676,11.59538 20.48289,21.08251 20.23586,21.08251 -0.24702,0 -4.75528,-2.80307 -10.01834,-6.22904 z M 97.456383,366.0534 c -9.99568,-3.02636 -17.4933,-7.37364 -24.77287,-14.36384 -3.68648,-3.53993 -6.48882,-6.65008 -6.22745,-6.91146 0.26137,-0.26138 3.38953,1.29512 6.95145,3.45888 9.26439,5.62782 17.43061,8.26918 27.345567,8.84491 21.02486,1.22086 40.6635,-8.27531 62.94242,-30.4355 12.84177,-12.77334 18.43142,-21.31046 23.55763,-35.97973 2.89918,-8.29636 2.98487,-9.18501 3.08561,-32 0.0882,-19.98206 0.43521,-24.81299 2.33671,-32.53333 9.16396,-37.20708 35.1585,-68.13483 73.31694,-87.23089 16.31957,-8.167 30.72188,-12.1947 48.53066,-13.57192 4.98667,-0.38563 10.23578,-0.25921 11.66467,0.28095 2.0811,0.7867 0.87006,1.12622 -6.08672,1.70639 -12.16976,1.01491 -25.31104,5.04409 -40.24461,12.33915 -15.6817,7.66052 -28.04472,16.37749 -39.74323,28.02234 -20.30583,20.21268 -31.71031,43.87132 -32.93772,68.32949 -0.78608,15.66365 0.60727,23.47082 6.21377,34.81665 5.52581,11.18256 16.26128,22.52542 25.58723,27.0349 30.46789,14.7325 81.22529,1.34762 112.08742,-29.5578 12.07956,-12.0965 23.6212,-30.50587 29.63029,-47.26147 3.88741,-10.83956 3.54171,-6.85521 -0.46699,5.38227 -13.30036,40.60241 -37.51745,67.33873 -74.73886,82.51375 -13.19779,5.38068 -25.67986,7.63467 -49.63191,8.96238 -11.44,0.63415 -23.68001,1.8643 -27.20001,2.73366 -8.97634,2.21696 -26.81989,11.054 -47.59143,23.5697 -9.74863,5.87394 -21.47322,12.24038 -26.05465,14.14764 -20.2443,8.42772 -44.45675,11.66825 -57.553917,7.70288 z m 98.931877,-43.05097 c 5.42746,-2.45533 15.35797,-6.20485 22.06777,-8.33228 6.70981,-2.12742 12.36215,-4.35552 12.56074,-4.95132 0.1986,-0.5958 -2.17123,-2.45897 -5.26631,-4.14036 -7.61012,-4.13417 -15.58904,-12.34414 -20.45289,-21.04514 -2.21363,-3.96 -4.34348,-7.19925 -4.73299,-7.19835 -0.38951,9.1e-4 -1.98684,5.30374 -3.54964,11.78406 -2.00062,8.29586 -4.60612,15.2842 -8.80499,23.61637 -4.60508,9.13821 -5.68968,12.16396 -4.76129,13.2826 1.68204,2.02673 1.91223,1.97308 12.9396,-3.01558 z m 57.86813,-26.88083 c -5.46983,-1.33017 -13.93082,-5.51336 -18.66667,-9.22896 -1.68444,-1.32156 -0.24383,-0.89929 3.91117,1.14645 27.84353,13.70892 64.5831,3.27962 94.34463,-26.78171 10.44975,-10.555 16.89114,-19.65013 22.7216,-32.08243 5.66027,-12.06946 8.09453,-22.37676 8.0735,-34.18552 -0.0484,-27.2072 -13.47832,-46.19204 -36.78423,-51.99915 -5.37183,-1.33849 -28.9246,-1.73565 -32.65806,-0.5507 -1.10474,0.35063 -2.00861,0.38772 -2.00861,0.0824 0,-1.0709 8.09307,-2.8233 17.78754,-3.85157 24.59012,-2.60821 42.51274,4.79732 54.21621,22.40187 8.25077,12.41092 9.40063,17.03543 8.75092,35.19435 -0.61794,17.27078 -1.85812,22.59704 -8.26054,35.47724 -15.82673,31.83974 -44.21188,55.53456 -76.38469,63.76298 -9.41571,2.40813 -26.43996,2.70677 -35.04277,0.61472 z m 9.06666,-23.41451 c 0,-0.21351 4.56,-3.2093 10.13334,-6.6573 5.57333,-3.44801 10.13333,-6.89518 10.13333,-7.66037 0,-2.71717 -3.11279,-8.78859 -4.4789,-8.736 -0.76328,0.0293 -5.46777,2.78937 -10.45443,6.13333 -8.1965,5.49639 -9.04959,6.38704 -8.88879,9.27991 0.17203,3.09485 0.13913,3.11832 -1.00132,0.71414 -1.18355,-2.49504 -2.51955,-2.6253 -7.70989,-0.75174 -1.17334,0.42354 -0.57334,-0.28186 1.33333,-1.56757 1.90667,-1.28571 3.46066,-2.65052 3.45332,-3.03291 -0.007,-0.38239 -1.57912,-3.44384 -3.49285,-6.80321 l -3.4795,-6.10797 -3.46627,2.10797 c -4.81102,2.92575 -5.10537,2.6368 -1.03153,-1.01262 l 3.4835,-3.12057 -3.1329,-3.27943 c -1.72309,-1.80368 -3.79142,-3.27942 -4.59629,-3.27942 -0.80486,0 -1.1647,-0.48327 -0.79965,-1.07394 0.36506,-0.59068 -0.43478,-2.61667 -1.7774,-4.50222 l -2.44115,-3.42827 3.99306,2.46785 3.99306,2.46784 9.10879,-7.73323 9.10877,-7.73324 -4.63272,-4.89906 c -10.41338,-11.01206 -10.33604,-11.92312 0.30948,-3.64566 3.26317,2.5373 6.43011,4.61326 7.03762,4.61326 0.60752,0 3.85089,-2.87922 7.20749,-6.39826 l 6.10291,-6.39826 -2.0996,-2.93507 c -1.15478,-1.61429 -5.98802,-7.41549 -10.74054,-12.89155 -4.75251,-5.47607 -8.64093,-10.17396 -8.64093,-10.43975 0,-1.08634 13.62781,8.87356 19.39163,14.1724 3.40441,3.12977 6.61618,5.69049 7.13727,5.69049 0.52109,0 2.73551,-2.1821 4.92092,-4.84911 l 3.97348,-4.84911 -6.63802,-7.46896 c -3.65092,-4.10793 -6.4524,-7.6546 -6.22551,-7.88148 0.22688,-0.22688 3.98878,2.19241 8.35978,5.3762 l 7.94726,5.78871 2.50695,-2.92479 2.50694,-2.92479 -1.85897,3.391 -1.85897,3.39099 4.53317,6.00415 c 2.49325,3.30229 5.05757,5.82936 5.69849,5.61572 0.64093,-0.21365 3.26447,-2.8324 5.83009,-5.81945 l 4.66479,-5.43102 -5.64465,-6.64895 c -3.10456,-3.65692 -6.57044,-7.84878 -7.70194,-9.31524 -2.04288,-2.64763 -2.04229,-2.65826 0.0848,-1.51989 1.17812,0.63051 4.5039,3.2208 7.39061,5.75618 9.08221,7.97687 8.72338,7.80147 11.30036,5.52372 l 2.27844,-2.01388 -1.74256,2.71168 c -1.69618,2.6395 -1.61147,2.90709 3.18233,10.05297 l 4.9249,7.34129 4.65254,-4.92421 c 2.55889,-2.70832 4.65253,-5.88502 4.65253,-7.05934 0,-1.93874 -3.78188,-7.26422 -13.68963,-19.27713 -6.09378,-7.38856 -1.77509,-4.74275 8.87033,5.43434 10.10334,9.65886 10.21455,9.72835 12.40122,7.74943 l 2.20647,-1.99682 -1.87219,3.2621 c -1.83955,3.20522 -1.81504,3.40023 1.40472,11.1839 3.14282,7.59764 6.67908,18.44113 6.67908,20.48053 0,0.53435 -2.76,-4.45735 -6.13333,-11.09268 -3.37333,-6.63532 -6.61333,-12.17942 -7.2,-12.32024 -0.58667,-0.14081 -2.5482,1.76377 -4.35895,4.23241 -5.81714,7.93059 -5.9209,8.36343 -3.51982,14.68256 3.49444,9.19661 4.01129,9.9087 6.00611,8.27475 1.54832,-1.26822 1.5462,-1.14739 -0.0223,1.26446 -1.32243,2.03353 -1.51996,3.61639 -0.83196,6.66667 1.03047,4.56867 0.49388,5.27953 -1.00647,1.33333 C 338.49871,222 337.62365,220.8 337.11177,220.8 c -0.51188,0 -3.707,2.91065 -7.10025,6.46811 l -6.16953,6.46813 0.59488,5.53187 0.59489,5.53189 -1.75317,-3.73334 c -0.96424,-2.05333 -1.87652,-3.92114 -2.02729,-4.15068 -0.15076,-0.22955 -2.5285,1.45045 -5.28387,3.73333 -2.75537,2.28288 -5.47801,4.46255 -6.05031,4.84372 -0.65544,0.43655 -0.39045,3.28105 0.71601,7.68589 2.5647,10.21011 2.02205,11.74036 -1.47321,4.15441 -1.6894,-3.66667 -3.35767,-6.66667 -3.70724,-6.66667 -3.01272,0 -17.59629,10.214 -17.59629,12.32404 0,0.86688 -0.65352,1.2249 -1.58406,0.86781 -0.87123,-0.33431 -4.83123,0.93393 -8.8,2.81835 -9.65354,4.5836 -14.14928,6.49962 -14.14928,6.03023 z M 272.57485,248 l 4.66423,-4.26667 -2.7518,-4.53333 c -1.5135,-2.49334 -3.32714,-4.53334 -4.03032,-4.53334 -0.70318,0 -4.87597,2.56109 -9.27287,5.69131 -8.67234,6.17396 -8.68537,6.20891 -5.27799,14.15801 l 2.0691,4.827 4.9677,-3.53816 c 2.73224,-1.94599 7.06662,-5.45816 9.63195,-7.80482 z m 22.55585,4 c 3.85654,-2.78667 7.43903,-5.36066 7.96109,-5.71999 0.52205,-0.35933 -0.30544,-3.12922 -1.83887,-6.1553 -2.36319,-4.66353 -3.081,-5.34518 -4.7104,-4.47316 -3.59771,1.92544 -12.9528,10.94017 -12.9528,12.48156 0,2.0911 2.91827,8.93355 3.81011,8.93355 0.39544,0 3.87433,-2.28 7.73087,-5.06666 z m -35.36927,-14.69205 c 4.30556,-3.24063 7.82829,-6.33803 7.82829,-6.88314 0,-2.66915 -2.68019,-6.42481 -4.585,-6.42481 -2.88192,0 -18.994,11.72629 -18.15989,13.21668 1.29213,2.30879 4.99894,5.98332 6.03586,5.98332 0.57885,0 4.57518,-2.65143 8.88074,-5.89205 z m 53.84541,0.87286 c 2.85058,-2.17388 5.18288,-4.51527 5.18288,-5.20306 0,-1.63294 -3.11682,-9.13543 -4.50173,-10.83609 -0.829,-1.01802 -2.02541,-0.57542 -5.16395,1.91035 -2.24673,1.77944 -4.39084,4.19912 -4.76471,5.37706 -0.61121,1.92575 2.43593,12.70426 3.59155,12.70426 0.26019,0 2.80537,-1.77863 5.65596,-3.95252 z m -26.26424,-1.46577 c 8.90467,-7.2923 8.56878,-6.53126 5.32523,-12.06594 -1.58445,-2.70367 -3.38347,-4.91577 -3.9978,-4.91577 -0.61434,0 -3.80873,2.25343 -7.09865,5.00762 -3.28991,2.75417 -6.13393,5.10645 -6.32004,5.22726 -0.60948,0.39565 5.15339,11.09845 5.9759,11.09845 0.44087,0 3.19278,-1.95823 6.11536,-4.35162 z m 43.91315,-14.15046 5.53269,-5.29209 -3.10882,-6.15854 c -1.70986,-3.3872 -3.54731,-6.42954 -4.08322,-6.76076 -0.98301,-0.60753 -7.08117,5.55855 -10.19055,10.30408 -1.53137,2.33717 -1.53058,3.03564 0.009,7.82121 0.92974,2.89017 1.89515,5.90891 2.14533,6.70831 0.55919,1.78673 1.76662,0.96205 9.69567,-6.62221 z m -51.27928,-2.18599 c 6.40458,-6.20332 6.41166,-6.25951 1.55931,-12.37859 l -2.11463,-2.66667 -6.44905,6.36661 c -3.54698,3.50164 -6.44905,6.7048 -6.44905,7.11816 0,1.21751 5.43274,7.31523 6.51747,7.31523 0.54698,0 3.66816,-2.58963 6.93595,-5.75474 z m 25.8774,-0.0881 c 2.42139,-2.62688 4.40252,-5.10485 4.40252,-5.5066 0,-0.40175 -1.51492,-3.09124 -3.36648,-5.97665 l -3.36648,-5.24621 -4.70888,4.70889 -4.70887,4.70887 2.96422,6.04394 c 1.63033,3.32417 3.2831,6.04394 3.67284,6.04394 0.38974,0 2.68974,-2.14928 5.11113,-4.77617 z m 15.50367,-14.53919 c 2.69437,-2.99678 4.89885,-6.01179 4.89885,-6.70003 0,-0.68824 -1.76118,-4.06694 -3.91371,-7.50823 l -3.91372,-6.2569 -4.02772,4.69026 c -6.8529,7.98017 -6.9309,8.36604 -3.07331,15.2013 1.86932,3.31227 3.78847,6.02231 4.26477,6.02231 0.47629,0 3.07047,-2.45192 5.76484,-5.4487 z m -24.74612,-0.63445 c 2.22473,-2.17238 4.04497,-4.48598 4.04497,-5.14132 0,-1.36974 -7.2516,-10.10886 -8.38819,-10.10886 -0.83614,0 -7.61181,8.53101 -7.61181,9.58377 0,1.0058 6.48928,9.61623 7.2473,9.61623 0.36451,0 2.48299,-1.77742 4.70773,-3.94981 z M 32.389723,263.6029 c -9.79177,-2.60987 -20.26268,-12.19666 -26.1196497,-23.91421 -5.35278996,-10.70888 -6.75592996,-19.8777 -6.13259996,-40.07348 0.60393,-19.56717 2.90364996,-31.00677 9.94005966,-49.44534 5.31022,-13.91512 17.33782,-36.98112 26.85597,-51.5032 C 70.295213,47.76594 113.32097,14.83192 163.04208,2.13699 167.64544,0.96165 172.27625,0 173.33275,0 c 1.05651,0 -3.9549,3.56292 -11.13648,7.91759 -61.31441,37.17909 -102.580877,84.63714 -120.647277,138.74908 -5.52346,16.54368 -7.89643,30.31344 -7.36193,42.71942 0.3527,8.1864 0.86624,10.42123 3.38059,14.71163 10.77074,18.37889 30.98448,15.49965 54.11853,-7.70861 9.909467,-9.94126 19.747167,-23.13032 35.276857,-47.29443 6.51378,-10.1354 22.16026,-33.97371 34.76994,-52.97402 20.18116,-30.40901 24.33143,-35.99605 34.65672,-46.65453 21.85553,-22.56078 41.1717,-34.57378 68.17508,-42.39906 9.0891,-2.63391 28.75305,-5.49525 32.51364,-4.73111 1.08789,0.22105 -2.33434,1.75642 -7.60494,3.41192 -19.23082,6.04042 -34.20841,15.29132 -50.98273,31.48943 -20.02056,19.33284 -32.05632,36.97909 -49.53738,72.62936 -13.99983,28.55078 -23.36719,45.36793 -35.94584,64.53334 -34.21228,52.1274 -59.228457,76.5928 -89.127167,87.1648 -6.44976,2.28058 -25.86613,3.53722 -31.49064,2.03809 z"
     id="path865"
     inkscape:connector-curvature="0" />
</svg>
