<?xml version="1.0" encoding="UTF-8" standalone="no"?>
<!-- Created with Inkscape (http://www.inkscape.org/) -->

<svg
   xmlns:dc="http://purl.org/dc/elements/1.1/"
   xmlns:cc="http://creativecommons.org/ns#"
   xmlns:rdf="http://www.w3.org/1999/02/22-rdf-syntax-ns#"
   xmlns:svg="http://www.w3.org/2000/svg"
   xmlns="http://www.w3.org/2000/svg"
   xmlns:sodipodi="http://sodipodi.sourceforge.net/DTD/sodipodi-0.dtd"
   xmlns:inkscape="http://www.inkscape.org/namespaces/inkscape"
   version="1.1"
   id="svg869"
   width="678"
   height="671"
   viewBox="0 0 678 671"
   sodipodi:docname="tcselles.svg"
   inkscape:version="0.92.4 5da689c313, 2019-01-14">
  <metadata
     id="metadata875">
    <rdf:RDF>
      <cc:Work
         rdf:about="">
        <dc:format>image/svg+xml</dc:format>
        <dc:type
           rdf:resource="http://purl.org/dc/dcmitype/StillImage" />
        <dc:title></dc:title>
      </cc:Work>
    </rdf:RDF>
  </metadata>
  <defs
     id="defs873" />
  <sodipodi:namedview
     pagecolor="#ffffff"
     bordercolor="#666666"
     borderopacity="1"
     objecttolerance="10"
     gridtolerance="10"
     guidetolerance="10"
     inkscape:pageopacity="0"
     inkscape:pageshadow="2"
     inkscape:window-width="1920"
     inkscape:window-height="1016"
     id="namedview871"
     showgrid="false"
     inkscape:zoom="0.70710678"
     inkscape:cx="326.77349"
     inkscape:cy="303.68169"
     inkscape:window-x="0"
     inkscape:window-y="27"
     inkscape:window-maximized="1"
     inkscape:current-layer="svg869" />
  <path
     style="fill:#000000"
     d="M 313.73122,662.15771 C 211.67432,653.89826 120.58117,600.63559 64.214056,516.26362 34.102496,471.19177 15.569947,418.83136 10.768787,365.26362 9.2646466,348.4816 9.5027066,317.40025 11.264937,300.48518 21.836367,199.01353 80.425246,107.71766 169.23122,54.33488 c 87.45059,-52.568031 195.763,-61.273824 291,-23.389615 57.20831,22.756822 103.90122,58.668908 143.43598,110.318355 10.79986,14.10927 26.09454,40.11581 34.40439,58.5 20.11908,44.51019 28.90785,85.42473 28.9991,135 0.0743,40.34731 -5.12362,71.87152 -17.89006,108.5 -37.26324,106.91278 -130.57526,189.04994 -241.33841,212.43619 -28.08399,5.92958 -67.34762,8.62386 -94.111,6.4579 z m 44,-4.91756 c 68.87122,-4.76729 130.00651,-28.256 182.69493,-70.19298 C 654.03983,496.61713 693.21358,342.66989 636.5455,209.31181 620.62454,171.84469 597.63116,138.04609 567.78052,108.23225 543.56918,84.050757 516.28158,63.939547 488.23122,49.603697 c -49.36104,-25.227219 -95.96997,-36.593012 -150,-36.578162 -111.69455,0.0307 -214.88029,57.071608 -274.490834,151.738085 -43.472079,69.03724 -58.9163797,152.86507 -42.927549,233 6.167229,30.90973 14.298409,54.26451 28.897219,83 9.63454,18.96412 16.16614,29.43846 29.31254,47.00682 56.899644,76.03856 143.227794,122.95078 238.208624,129.44673 16.4516,1.12516 24.51115,1.12973 40.5,0.023 z m -48.31393,-22.9931 c -4.50424,-1.35204 -5.24167,-2.4656 -4.85471,-7.33091 l 0.35756,-4.4958 4.55448,2.42164 c 5.48644,2.91717 11.16003,3.13017 14.35986,0.53911 2.04194,-1.65346 2.18152,-2.19703 1.14714,-4.46725 -0.71671,-1.57299 -3.44261,-3.73664 -6.96404,-5.52759 -9.97048,-5.07087 -12.93448,-9.26395 -11.82091,-16.7227 1.37658,-9.2204 11.53212,-13.30949 25.57525,-10.29778 4.55911,0.97775 5.0741,1.34456 4.56287,3.25 -0.31694,1.18132 -0.58241,3.44045 -0.58992,5.02029 -0.0103,2.17694 -0.31631,2.62435 -1.26365,1.84778 -2.15423,-1.76591 -9.78774,-3.37084 -12.842,-2.70001 -3.65513,0.8028 -5.39777,3.69613 -3.90553,6.4844 0.59006,1.10254 3.64339,3.31002 6.78518,4.90551 3.14179,1.59549 7.00127,4.25921 8.57662,5.91938 5.74301,6.05222 4.03085,16.44981 -3.34867,20.33569 -3.74503,1.97205 -14.97933,2.42422 -20.32953,0.81824 z m 48.53211,-1.64651 c -4.01022,-1.97656 -6.67312,-5.56203 -8.05529,-10.84609 -1.29494,-4.95054 -4.38138,-31.60568 -3.73457,-32.25248 0.26009,-0.26009 2.4729,-0.69832 4.91737,-0.97385 5.34269,-0.6022 5.10045,-1.13802 6.66185,14.7355 1.41642,14.39967 2.47293,18.5227 5.24365,20.46339 3.3633,2.35575 8.43259,1.94374 11.29426,-0.91794 2.91791,-2.9179 3.04833,-6.02024 1.01084,-24.04545 -0.74603,-6.6 -1.18629,-12.17761 -0.97834,-12.39468 0.20794,-0.21707 2.55036,-0.60341 5.20537,-0.85852 l 4.82729,-0.46384 1.29182,13.46168 c 2.08877,21.76635 1.56261,26.30957 -3.58665,30.96958 -5.20516,4.71061 -17.61355,6.31856 -24.0976,3.1227 z m 48.78182,-5.82796 c 0,-0.54786 -11.93227,-41.16889 -12.61852,-42.95722 -0.44281,-1.15395 10.6373,-4.84849 19.68926,-6.56516 10.03589,-1.90326 15.92926,2.39339 15.92926,11.61348 0,4.49936 -0.46876,5.86424 -3.00689,8.75501 -3.00473,3.42219 -3.00527,3.42508 -0.75,4.02022 2.42773,0.64065 17.75689,13.2954 17.75689,14.65893 0,0.45229 -2.4247,1.36497 -5.38822,2.02818 l -5.38823,1.20583 -7.60678,-6.63411 c -11.43682,-9.97441 -14.21585,-8.96047 -10.61482,3.87283 1.18398,4.21946 2.0054,7.77538 1.82537,7.90206 -0.48938,0.34436 -8.46088,2.59099 -9.19334,2.59099 -0.34869,0 -0.63398,-0.22097 -0.63398,-0.49104 z m 11.25,-30.62276 c 2.32377,-2.79885 2.21942,-7.1514 -0.22448,-9.3631 -1.54338,-1.39674 -2.88714,-1.64094 -6.15461,-1.11845 -2.29908,0.36764 -4.53053,0.88498 -4.95878,1.14965 -0.42824,0.26468 -0.0952,2.61073 0.74,5.21346 0.83524,2.60273 1.71213,5.3496 1.94864,6.10416 0.622,1.98436 6.46721,0.6424 8.64923,-1.98572 z m -170.75,26.30433 c -9.06484,-3.84742 -9.2188,-4.06224 -7.45711,-10.40544 l 1.03174,-3.71491 4.48553,3.42388 c 4.66801,3.56317 9.84109,5.14814 13.26052,4.06285 4.71583,-1.49674 3.05932,-6.90885 -3.80213,-12.42218 -10.00585,-8.03993 -10.83479,-17.94364 -2.00398,-23.94232 2.94512,-2.00059 4.41554,-2.30449 9.48543,-1.96039 6.31172,0.42839 16.50392,4.2231 16.49442,6.14112 -0.003,0.61977 -0.46772,2.79085 -1.03258,4.82461 l -1.027,3.69776 -3.58591,-2.43347 c -7.20669,-4.89059 -13.87304,-5.20632 -15.00142,-0.71049 -0.53875,2.14656 0.34132,3.44244 6.04157,8.89598 6.78297,6.48941 8.61092,9.46803 8.61092,14.03142 0,3.55359 -3.77337,9.89676 -6.67331,11.21806 -3.59853,1.6396 -14.23996,1.24027 -18.82669,-0.70648 z m -34.5,-13.64931 c -7.46615,-3.45257 -11.38531,-5.79557 -11.17303,-6.67958 0.17983,-0.7489 4.4081,-10.43281 9.39615,-21.51979 l 9.06919,-20.15814 7.60385,3.47664 c 4.18211,1.91216 9.72683,4.395 12.3216,5.51743 l 4.71776,2.04077 -1.49973,3.58936 c -0.82485,1.97415 -1.64051,3.73014 -1.81257,3.90221 -0.17207,0.17206 -3.54864,-1.11637 -7.50348,-2.86319 -4.34316,-1.91833 -7.55194,-2.81387 -8.10303,-2.26148 -0.50181,0.503 -1.61657,2.60127 -2.47724,4.66281 l -1.56486,3.74826 6.92257,3.09533 6.92256,3.09532 -1.51497,3.65642 c -0.83323,2.01102 -1.64792,3.79916 -1.81043,3.97364 -0.16251,0.17448 -2.47772,-0.77974 -5.14491,-2.12049 -8.5101,-4.27788 -8.67515,-4.2643 -11.19417,0.92059 -1.23572,2.54348 -2.11367,4.75609 -1.95101,4.91692 0.16266,0.16083 3.7873,1.88266 8.05475,3.82629 l 7.75899,3.53387 -1.69421,3.5528 c -0.93181,1.95403 -2.17336,3.5211 -2.75899,3.48238 -0.58564,-0.0387 -6.23979,-2.46349 -12.56479,-5.38837 z m -35,-18.61863 c -5.775,-3.79982 -10.92677,-7.05413 -11.44838,-7.2318 -1.06759,-0.36365 23.35354,-39.69079 24.64693,-39.69079 1.26665,0 7.77501,4.39656 7.78907,5.26171 0.007,0.41894 -4.46402,7.84394 -9.93517,16.5 l -9.94755,15.73829 6.3995,4.03528 c 3.51972,2.2194 6.71842,4.35421 7.10823,4.74402 0.71334,0.71334 -2.61528,7.79366 -3.59003,7.63637 -0.28743,-0.0464 -5.2476,-3.19327 -11.0226,-6.99308 z m 299.99353,5.12756 c -18.30802,-5.45575 -24.65791,-30.86692 -10.66562,-42.68198 3.47018,-2.93022 12.28826,-7.34774 14.67209,-7.35015 0.825,-8.4e-4 2.46165,1.77018 3.63699,3.93559 l 2.137,3.93712 -3.137,0.65268 c -12.29457,2.55798 -17.94907,13.0507 -12.35531,22.92702 2.81969,4.97843 7.98473,8.52957 12.40604,8.52957 4.44563,0 10.51084,-3.16117 13.57342,-7.07442 l 2.44949,-3.12986 2.14468,3.47017 c 1.17958,1.9086 2.14469,3.9272 2.14469,4.48578 0,1.69874 -7.31163,7.74127 -12.04348,9.95307 -5.201,2.43109 -11.4097,3.40428 -14.96299,2.34541 z m 34.78504,-27.86465 c -3.62807,-4.22702 -10.4807,-12.1855 -15.22807,-17.6855 l -8.63158,-10 3.73036,-3.27006 c 2.05169,-1.79853 4.03925,-3.14853 4.41679,-3 0.37754,0.14853 3.28838,3.32931 6.46853,7.06839 l 5.78209,6.79832 3.59166,-3.35928 c 1.97541,-1.8476 5.27332,-4.77548 7.32868,-6.50639 l 3.73704,-3.14711 -5.98704,-6.93897 c -3.29286,-3.81644 -5.98703,-7.135 -5.98703,-7.37457 0,-0.23958 1.73608,-1.83075 3.85795,-3.53594 l 3.85795,-3.10033 7.89205,9.14833 c 4.34063,5.03159 11.18599,12.9777 15.21192,17.65804 l 7.31987,8.50971 -3.68029,3.27493 c -2.02416,1.80121 -3.9681,3.24483 -4.31987,3.20805 -0.35177,-0.0368 -3.26922,-3.19133 -6.48322,-7.0101 l -5.84365,-6.94321 -3.15635,2.65063 c -1.736,1.45785 -5.08361,4.34461 -7.43913,6.41502 l -4.28277,3.76437 6.01539,6.84509 c 3.30846,3.76479 6.02321,7.14477 6.03277,7.51105 0.01,0.36628 -1.69823,2.02476 -3.79509,3.6855 l -3.81247,3.01953 z m -368.68821,-1.75475 c -5.5497,-4.71309 -10.09036,-8.7288 -10.09036,-8.9238 0,-0.7884 29.17267,-35.00695 29.84481,-35.00695 0.39889,0 2.35995,1.35 4.35791,3 l 3.63265,3 -12.37243,14.71134 -12.37243,14.71134 5.70475,4.74151 c 3.13761,2.60783 6.09757,5.06556 6.5777,5.46161 0.93081,0.76784 -2.93392,6.8742 -4.35069,6.8742 -0.46285,0 -5.38221,-3.85616 -10.93191,-8.56925 z M 113.83472,537.2163 c -5.04839,-5.62457 -9.04942,-10.59119 -8.89119,-11.03692 0.15824,-0.44574 3.92526,-4.09663 8.37116,-8.1131 4.4459,-4.01646 11.99487,-10.85588 16.7755,-15.19871 l 8.69204,-7.89606 7.13761,7.71856 c 11.66841,12.61814 11.24173,11.78707 7.76283,15.12007 l -2.96349,2.8392 -5.07397,-5.69286 c -2.79068,-3.13107 -5.57905,-5.69286 -6.19637,-5.69286 -0.61732,0 -2.58343,1.41608 -4.36912,3.14684 l -3.24672,3.14684 4.96379,5.56925 4.96379,5.56925 -2.94296,2.94296 -2.94297,2.94297 -5.18476,-5.67295 -5.18475,-5.67295 -3.80232,3.2639 c -2.09127,1.79514 -3.8404,3.5247 -3.88695,3.84348 -0.0466,0.31877 2.4595,3.39096 5.56902,6.82709 l 5.65367,6.24751 -3.01248,3.01249 -3.01248,3.01248 z m 176.07704,0.29732 c 3.06628,-11.28047 17.25809,-26.25434 39.31946,-41.48621 87.70769,-60.55615 134.72449,-95.90858 156.55729,-117.71712 20.49581,-20.47304 30.09396,-42.09781 30.20249,-68.04667 0.1364,-32.61176 -14.57937,-61.9631 -43.46585,-86.69481 -23.1754,-19.84206 -48.30108,-30.65245 -74.39887,-32.01032 -9.68691,-0.50401 -12.04604,-0.29194 -18.47478,1.66073 -14.37118,4.36511 -25.49879,11.48882 -39.00995,24.97351 -5.27432,5.26399 -13.03682,14.25318 -17.25,19.97598 -4.21318,5.7228 -7.66033,10.03511 -7.66033,9.58291 0,-1.75401 15.6377,-30.57623 23.15185,-42.67174 19.15098,-30.82726 42.19344,-54.69157 61.17978,-63.36183 17.21439,-7.86108 31.28895,-7.20873 53.79296,2.49328 58.44328,25.19627 96.68949,79.2102 104.83292,148.05229 4.17392,35.285 -0.35678,62.27519 -13.41136,79.89397 -6.04588,8.15965 -17.70093,18.6446 -32.04615,28.82888 -20.34897,14.44661 -57.83436,40.41412 -74,51.26255 -7.7,5.16731 -16.025,10.7965 -18.5,12.50931 -16.64217,11.51715 -63.45287,41.09562 -85.09583,53.76988 -16.60777,9.7256 -42.86694,22.73541 -45.88948,22.73541 -0.46941,0 -0.39478,-1.6875 0.16585,-3.75 z m 114.16012,1.23996 c 35.26463,-14.64466 65.08354,-37.08101 81.59294,-61.39218 4.75392,-7.00046 11.62096,-20.87655 10.75834,-21.73918 -0.31127,-0.31127 -5.4318,1.04467 -11.37894,3.0132 -10.32236,3.41673 -28.83599,8.62034 -30.68882,8.62568 -0.48171,10e-4 5.24566,-3.70998 12.72747,-8.24748 27.43041,-16.63573 53.99985,-36.45753 71.90736,-53.64559 l 9.84035,-9.44501 -2.19288,5.9203 c -12.82015,34.61164 -34.09708,67.76082 -59.04589,91.99274 -24.46958,23.76645 -50.43567,38.36291 -81.86059,46.01674 -7.89446,1.92277 -8.29593,1.65682 -1.65934,-1.09922 z m 140.65934,-18.1666 c -9.625,-8.01966 -17.5,-14.95559 -17.5,-15.41319 0,-1.25924 15.43837,-19.91017 16.48071,-19.91017 0.49927,0 2.15075,1.06917 3.66995,2.37593 l 2.76219,2.37594 -5.38916,6.22078 -5.38915,6.22078 3.93273,3.38419 3.93273,3.38418 5,-5.4945 c 2.75,-3.02197 5.26751,-5.48838 5.59446,-5.4809 0.32695,0.007 1.86934,1.10907 3.42753,2.44798 l 2.83307,2.43439 -4.8844,5.71725 -4.8844,5.71726 3.89668,3.36842 c 2.14318,1.85263 4.19783,3.24689 4.56589,3.09836 0.36806,-0.14853 3.00922,-3.09478 5.86924,-6.54721 l 5.20004,-6.27716 2.88561,2.27716 c 1.58709,1.25243 2.91052,2.62372 2.94095,3.04731 0.0446,0.62071 -16.92092,21.849 -17.32819,21.68211 -0.0641,-0.0263 -7.99148,-6.60926 -17.61648,-14.62891 z m -320,-3.43783 c -43.95035,-28.1787 -77.79058,-69.74434 -93.40812,-114.73231 -5.96344,-17.17831 -4.82344,-20.25868 6.67043,-18.02402 9.64632,1.87545 32.66688,1.57325 42.73769,-0.56103 26.02184,-5.51474 48.25821,-17.84372 68.68668,-38.08339 l 11.18668,-11.08329 -3.60857,6.54925 c -20.44947,37.11408 -56.18132,65.18949 -93.51479,73.47691 -2.54051,0.56395 -2.75,0.98187 -2.75,5.48607 0,2.68158 0.95166,7.96051 2.11479,11.73094 6.21285,20.13967 21.41922,41.02333 52.50328,72.10534 10.5882,10.5875 19.16817,19.2447 19.0666,19.23822 -0.10157,-0.006 -4.45967,-2.75269 -9.68467,-6.10269 z M 93.231226,509.10153 c -5.72541,-3.15262 -14.5,-15.4209 -14.5,-20.27334 0,-0.82086 1.6875,-2.64288 3.75,-4.04894 3.37333,-2.29969 3.78274,-2.37865 4.0759,-0.78605 1.67623,9.10593 5.568,15.27042 9.64055,15.27042 3.956044,0 4.894524,-2.283 4.014914,-9.76679 -1.053044,-8.95919 -0.767914,-13.14693 1.08798,-15.97938 2.14046,-3.26676 7.35616,-6.24662 10.93066,-6.24497 3.65278,0.002 9.35402,3.38499 12.90674,7.6593 2.46763,2.96883 7.16165,12.24862 6.42681,12.7054 -0.18346,0.11404 -1.97349,1.41325 -3.97785,2.88715 l -3.64429,2.67981 -0.60862,-3.22026 c -0.81154,-4.29396 -3.90837,-9.21915 -7.11983,-11.32338 -2.5054,-1.6416 -2.69877,-1.62552 -4.71667,0.39239 -2.02491,2.0249 -2.05643,2.4251 -0.83669,10.62358 1.16015,7.79803 1.11095,8.8387 -0.58106,12.29009 -3.30225,6.73596 -11.369154,10.15211 -16.848544,7.13497 z M 569.23122,489.72478 c -10.45,-6.3025 -19.38027,-11.58631 -19.84505,-11.74181 -0.76241,-0.25507 6.64005,-13.33078 10.34505,-18.27351 4.91607,-6.55836 11.81499,-8.19678 17.66751,-4.19584 3.7864,2.58849 5.76078,6.62431 5.62275,11.49346 -0.0795,2.80485 0.19151,3.26833 1.55674,2.66229 0.90915,-0.40358 6.77321,-0.93537 13.03123,-1.18176 9.41521,-0.3707 11.23887,-0.21301 10.5704,0.91401 -0.44431,0.7491 -1.85766,3.0495 -3.14078,5.112 l -2.33294,3.75 h -9.83247 c -8.25554,0 -10.09789,0.29329 -11.48745,1.82874 -0.91025,1.00581 -1.65499,2.26231 -1.65499,2.79222 0,0.52992 2.9246,2.6743 6.4991,4.7653 3.57451,2.091 6.74427,4.19851 7.04392,4.68335 0.54103,0.87541 -3.58577,8.94441 -4.54302,8.88281 -0.275,-0.0177 -9.05,-5.18876 -19.5,-11.49126 z m 4.75,-13.54852 c 2.30006,-4.04116 2.21412,-7.44852 -0.25,-9.91264 -2.01193,-2.01193 -5.60157,-2.5991 -7.54818,-1.23469 -0.5765,0.40408 -2.062,2.18646 -3.30111,3.96084 l -2.25293,3.22615 5.30111,3.47321 c 2.91561,1.91026 5.52611,3.49315 5.80111,3.51753 0.275,0.0244 1.2875,-1.33931 2.25,-3.0304 z m -356.25,-12.57237 c -11.2997,-1.75082 -21.34352,-6.61864 -29.2843,-14.19285 -8.61873,-8.22088 -8.93524,-9.89599 -0.88597,-4.68895 13.6248,8.81384 27.48147,11.44205 42.12663,7.99022 15.45503,-3.64273 28.17657,-11.5523 44.11073,-27.42571 9.91025,-9.87246 12.23115,-12.82188 16.20319,-20.59119 7.98213,-15.61305 10.63692,-29.37313 8.67473,-44.96209 -3.59378,-28.55136 11.57226,-64.60135 36.67929,-87.18747 26.4003,-23.74953 55.93636,-36.28223 85.50708,-36.28223 8.4638,0 10.2981,1.5585 2.16079,1.83591 -24.00977,0.81851 -56.63602,16.59014 -77.62941,37.5263 -14.30324,14.26426 -23.8906,30.43973 -28.82807,48.63779 -1.86464,6.87249 -2.30111,10.98914 -2.27954,21.5 0.0242,11.82032 0.28422,13.67868 2.8649,20.47899 11.52498,30.36937 37.04185,43.27517 71.27426,36.04877 44.43704,-9.38058 74.25495,-35.55183 89.46968,-78.52776 3.8879,-10.98187 2.46416,-3.45537 -1.79706,9.5 -11.01948,33.50249 -32.20874,58.22018 -61.78375,72.07192 -18.35785,8.59808 -28.85755,10.86548 -55.08318,11.89515 -18.59631,0.73013 -21.81963,1.11229 -28.16073,3.33878 -11.72627,4.11733 -23.03292,9.83564 -37.33927,18.88422 -7.425,4.69622 -16.65,10.12289 -20.5,12.05926 -18.77892,9.44494 -41.13876,14.31614 -55.5,12.09094 z m 87.42235,-42.30159 c 5.77633,-2.84374 14.74965,-6.18931 21.02379,-7.83842 6.02038,-1.58242 11.11148,-3.37311 11.31355,-3.97933 0.20207,-0.60622 -2.24869,-2.33878 -5.44614,-3.85014 -7.75779,-3.66693 -15.29118,-11.39056 -19.75432,-20.25317 -1.99305,-3.95768 -3.99991,-6.9633 -4.45968,-6.67915 -0.45976,0.28415 -1.14883,2.88924 -1.53125,5.78909 -1.113,8.43961 -6.46096,23.19031 -11.18685,30.85548 -3.52524,5.71776 -4.1673,7.44859 -3.33795,8.99824 0.56478,1.0553 1.53859,1.91872 2.16403,1.91872 0.62544,0 5.67211,-2.23259 11.21482,-4.96132 z m 63.07765,-23.15053 c -10.2075,-0.69393 -16.54273,-2.81832 -24.85165,-8.33347 -6.96184,-4.621 -8.63439,-6.77287 -1.97302,-2.53845 12.07837,7.67784 31.06727,9.76822 46.27534,5.09418 31.52305,-9.68827 61.15861,-38.16506 70.88195,-68.11041 7.223,-22.24496 3.44597,-46.20762 -9.31955,-59.12622 -9.96197,-10.08143 -23.20525,-14.44633 -41.01307,-13.51765 -6.05,0.31551 -12.125,0.82715 -13.5,1.13697 -2.34459,0.5283 -2.36327,0.50256 -0.30041,-0.41402 8.06183,-3.58208 28.09692,-5.13459 38.50119,-2.98343 6.46439,1.33657 15.19597,5.52169 20.62864,9.88751 5.13645,4.12777 11.56871,13.27215 14.97406,21.2878 2.41738,5.69013 2.6485,7.39699 2.67142,19.72904 0.0361,19.40513 -3.78692,31.22575 -16.06873,49.68417 -14.34264,21.55566 -33.46437,36.34799 -57.31619,44.33909 -11.11844,3.72501 -18.14585,4.6429 -29.58998,3.86489 z m 6.08731,-28.41772 c 5.97951,-3.59126 11.22858,-6.88632 11.66461,-7.32235 0.43603,-0.43603 -0.15135,-2.92715 -1.30529,-5.53583 -1.98908,-4.49664 -2.21103,-4.6713 -4.27235,-3.36207 -1.19585,0.75953 -5.67475,3.54362 -9.95311,6.18687 -5.61838,3.47113 -7.64515,5.2582 -7.29749,6.43443 0.26474,0.89568 0.74394,2.97852 1.06489,4.62852 0.4799,2.46719 0.28207,2.28959 -1.11393,-1 -0.93361,-2.2 -1.80623,-4.14389 -1.93915,-4.31976 -0.13292,-0.17587 -2.08529,0.62078 -4.33858,1.77032 -5.01384,2.55787 -5.36607,1.99695 -0.59691,-0.95056 1.925,-1.18972 3.5,-2.63414 3.5,-3.20983 0,-0.5757 -1.3937,-3.48266 -3.09712,-6.45992 l -3.09712,-5.4132 -3.46004,2.04148 c -4.74834,2.80158 -5.51001,2.54283 -1.59572,-0.5421 1.7875,-1.40876 3.25,-2.94424 3.25,-3.41218 0,-2.04783 -5.33915,-7.08831 -6.88525,-6.50009 -1.29489,0.49264 -1.36691,0.36466 -0.36357,-0.64609 1.00304,-1.01045 0.61707,-1.91466 -1.94617,-4.55925 -3.8193,-3.94052 -2.82627,-4.31515 1.89425,-0.71464 l 3.38804,2.58419 5.6018,-4.83419 c 3.08099,-2.6588 6.91139,-5.95918 8.512,-7.33418 l 2.91019,-2.5 -6.80564,-7.44697 c -5.63034,-6.16092 -6.22512,-7.11075 -3.44405,-5.5 1.84888,1.07083 5.29293,3.63447 7.65345,5.69697 2.36052,2.0625 4.65975,3.75 5.1094,3.75 1.21472,0 12.37928,-11.26946 12.35264,-12.4687 -0.0226,-1.0157 -5.18008,-7.35158 -15.96944,-19.61808 l -5.49234,-6.24428 4.49234,2.80983 c 6.37985,3.99041 11.75166,8.15844 17.3229,13.44099 l 4.83055,4.58024 3.91674,-4.5 c 2.15421,-2.475 3.91797,-4.86444 3.91946,-5.30986 10e-4,-0.44542 -2.13964,-3.14542 -4.75805,-6 -2.61841,-2.85458 -5.65591,-6.29748 -6.75,-7.65089 l -1.98925,-2.46075 3,1.87257 c 1.65,1.02991 5.52896,3.80601 8.61992,6.1691 l 5.61992,4.29654 2.63008,-3.69648 c 1.44654,-2.03306 2.62007,-3.25182 2.60784,-2.70835 -0.0122,0.54347 -0.90222,2.11312 -1.97776,3.48812 -1.07554,1.375 -1.96553,2.86375 -1.97776,3.30834 -0.0284,1.03085 8.25285,11.56137 9.15044,11.63585 0.36997,0.0307 2.78647,-2.41842 5.37,-5.44247 l 4.69732,-5.49828 -2.55607,-3.35119 c -1.40585,-1.84315 -4.94735,-5.9789 -7.87001,-9.19054 -4.94106,-5.42962 -5.07483,-5.70331 -1.90649,-3.90053 1.87408,1.06635 6.05265,4.36467 9.2857,7.32959 l 5.87828,5.39077 2.65254,-2.39077 2.65254,-2.39077 -2.00608,2.85999 -2.00609,2.86 4.54481,6.87545 4.54482,6.87545 4.27113,-4.19179 c 2.34912,-2.30549 4.52246,-4.98367 4.82964,-5.95151 0.63678,-2.00632 -5.1765,-10.37839 -12.89965,-18.57759 -2.71985,-2.8875 -4.62349,-5.25 -4.2303,-5.25 1.90145,0 10.01871,6.66775 15.46927,12.70691 l 6.08524,6.74236 3.07885,-3.47463 c 3.19727,-3.60828 3,-2.43947 -0.36984,2.19121 l -1.93998,2.66586 3.58678,8.35091 c 3.81344,8.87862 7.20886,20.60677 6.24493,21.57069 -0.31901,0.31902 -0.58002,-0.0813 -0.58002,-0.88954 0,-1.61211 -6.96851,-16.43218 -10.1697,-21.62811 l -2.01115,-3.26434 -4.94881,6.19089 c -3.26345,4.08251 -4.72162,6.72674 -4.28169,7.76434 0.77985,1.83931 4.26999,10.93604 4.97744,12.97325 0.37357,1.07572 1.10561,0.84421 3.16202,-1 l 2.67591,-2.3998 -2.63354,3.24535 c -2.26852,2.79553 -2.50442,3.69554 -1.70201,6.4934 0.51234,1.78642 0.896,3.92602 0.85258,4.75465 -0.0861,1.64373 0.0424,1.88283 -2.10771,-3.92181 -0.88265,-2.3829 -1.02197,-2.30794 -7.43375,4 -7.09179,6.97692 -7.01697,6.70606 -4.88305,17.67772 0.29425,1.51288 -0.48938,0.20626 -1.74139,-2.90359 l -2.27639,-5.65428 -2.52593,2.15428 c -1.38927,1.18485 -3.96295,3.35513 -5.7193,4.82282 l -3.19337,2.66855 1.97992,7.74142 c 2.83114,11.06967 2.34312,13.14286 -1.05752,4.49252 -1.60627,-4.08593 -3.31882,-7.82729 -3.80567,-8.31414 -0.51357,-0.51357 -4.26813,1.34575 -8.94346,4.42896 -6.22958,4.10819 -8.10222,5.88149 -8.25186,7.81415 -0.13612,1.75794 -0.32932,1.98056 -0.6509,0.75 -0.25152,-0.9625 -0.58351,-1.75 -0.73775,-1.75 -0.15424,0 -5.48729,2.475 -11.85122,5.5 -6.36394,3.025 -11.89377,5.5 -12.28851,5.5 -0.39474,0 4.17461,-2.93831 10.15412,-6.52957 z m 0.16269,-16.89677 c 2.8875,-2.22602 5.25,-4.42311 5.25,-4.88242 0,-0.86174 -4.977,-9.69124 -5.46274,-9.69124 -0.81323,0 -17.03726,11.26375 -17.03726,11.82834 0,0.36941 1.09224,3.25175 2.42719,6.4052 l 2.42719,5.73354 3.57281,-2.67306 c 1.96505,-1.47018 5.93531,-4.49434 8.82281,-6.72036 z m 22.49638,2.2903 c 3.98949,-2.82482 7.44243,-5.30113 7.6732,-5.50291 0.6687,-0.5847 -4.16908,-10.36105 -5.12712,-10.36105 -0.47611,0 -3.80875,2.35844 -7.40586,5.24099 -5.5651,4.45959 -6.46506,5.61507 -6.03616,7.75 0.68197,3.39471 2.48021,8.00901 3.12119,8.00901 0.28663,0 3.78526,-2.31122 7.77475,-5.13604 z m -37.34077,-10.52911 c 11.0915,-8.22408 12.15328,-9.35228 10.96544,-11.65143 -3.13938,-6.07649 -3.31597,-6.06147 -12.8785,1.09535 l -8.84281,6.61816 2.67513,3.22934 c 1.47132,1.77613 3.08265,3.26182 3.58074,3.30153 0.49808,0.0397 2.52308,-1.12712 4.5,-2.59295 z m 59.36925,-6.33054 c 0.86841,-0.73299 -3.99387,-12.00431 -5.17848,-12.00431 -0.41635,0 -2.6975,1.73885 -5.06921,3.86412 -4.67581,4.18994 -4.74649,4.77672 -1.50873,12.52578 l 1.57654,3.77319 4.70251,-3.75237 c 2.58638,-2.06381 5.0512,-4.04669 5.47737,-4.40641 z m -28.52064,1.88064 c 3.43518,-2.81328 6.24578,-5.52223 6.24578,-6.01988 0,-0.72545 -4.32271,-8.2619 -5.57826,-9.72545 -0.17004,-0.1982 -3.18476,2.07917 -6.69938,5.06084 l -6.39023,5.42121 2.54076,5.18917 c 1.39741,2.85404 2.78708,5.18916 3.08815,5.18916 0.30107,0 3.358,-2.30177 6.79318,-5.11505 z m 41.076,-13.17325 4.33023,-4.45089 -3.09462,-6.1304 c -1.70204,-3.37173 -3.50215,-6.13041 -4.00024,-6.13041 -1.42278,0 -11.15376,11.32744 -10.71547,12.47345 0.21593,0.5646 1.20049,3.59128 2.18792,6.72596 l 1.79531,5.69941 2.58333,-1.86811 c 1.42082,-1.02747 4.53192,-3.87102 6.91354,-6.31901 z m -49.41081,-0.81204 c 3.06933,-2.80519 5.56807,-5.61769 5.55277,-6.25 -0.0153,-0.63231 -1.28739,-2.81283 -2.82686,-4.84558 l -2.79903,-3.69593 -6.19597,6.47075 -6.19597,6.47075 2.77283,3.47515 c 1.52505,1.91133 3.07406,3.47515 3.44223,3.47517 0.36818,2e-5 3.18068,-2.29512 6.25,-5.10031 z m 28.8655,-6.31783 c -0.3439,-0.59501 -1.95007,-3.03759 -3.56928,-5.42797 l -2.94401,-4.34614 -4.32819,4.2478 -4.3282,4.24781 3.08246,5.92277 3.08247,5.92277 4.815,-4.7426 c 2.64826,-2.60843 4.53364,-5.22943 4.18975,-5.82444 z m 9.31234,-6.83183 c 7.171,-7.59323 7.0548,-6.89955 2.32294,-13.86753 l -4.23101,-6.23043 -2.40922,2.92398 c -1.32508,1.60819 -3.52041,4.33648 -4.87853,6.06286 l -2.4693,3.13889 3.28393,6.09447 c 1.80617,3.35196 3.52775,6.10196 3.82573,6.11112 0.29799,0.009 2.34795,-1.89586 4.55546,-4.23336 z m -21.82894,-2.01393 4.18473,-4.26393 -3.72652,-4.93055 c -2.04959,-2.71181 -4.14577,-4.95554 -4.65819,-4.98608 -0.51242,-0.0305 -2.44348,2.04919 -4.29124,4.62159 l -3.35956,4.6771 3.29123,4.511 c 1.81018,2.48105 3.53505,4.53886 3.83303,4.5729 0.29799,0.034 2.42492,-1.85687 4.72652,-4.20203 z M 149.0554,365.82413 c -6.22804,-1.94739 -10.78868,-5.11095 -15.68777,-10.88206 -9.81916,-11.56691 -13.94653,-24.54541 -13.89045,-43.67845 0.0716,-24.43247 6.26571,-47.09256 20.39446,-74.60973 31.85661,-62.04395 81.08685,-104.16303 136.09899,-116.43992 11.23159,-2.50652 11.264,-2.49851 4.76059,1.17596 -47.90104,27.06444 -84.25738,61.50356 -106.6179,100.99548 -7.96643,14.06987 -14.70272,30.58723 -18.55331,45.49266 -2.87092,11.11317 -3.32879,14.53612 -3.32879,24.88555 0,11.57726 0.10942,12.19376 3.10608,17.5 9.51446,16.84744 27.63009,15.09684 48.41018,-4.67811 10.10742,-9.61852 20.45953,-23.17003 33.47589,-43.82189 13.67718,-21.70031 51.13472,-78.16701 56.33969,-84.93125 6.99112,-9.08549 22.75322,-24.29967 32.1306,-31.0137 21.05314,-15.07364 48.46358,-24.67847 69.91855,-24.49999 l 6.61901,0.0551 -7.15005,1.87439 c -37.95392,9.94964 -71.34407,42.97507 -96.06481,95.01549 -10.5322,22.17166 -16.30873,33.32533 -23.92571,46.19714 -19.11808,32.30735 -44.21271,65.24293 -60.28253,79.11814 -12.11451,10.46008 -27.61413,19.19389 -39.14079,22.05529 -7.77219,1.92938 -20.75264,2.02203 -26.61193,0.18994 z m 331.75477,-52.14384 c 0.048,-1.16495 0.28494,-1.4019 0.60416,-0.60417 0.28887,0.72187 0.25335,1.58438 -0.0789,1.91667 -0.33229,0.33229 -0.56864,-0.25834 -0.52522,-1.3125 z m -49.82895,-76.106 c 0.9625,-0.25152 2.5375,-0.25152 3.5,0 0.9625,0.25153 0.175,0.45733 -1.75,0.45733 -1.925,0 -2.7125,-0.2058 -1.75,-0.45733 z M 142.2025,151.1843 c -6.5842,-6.62919 -12.81012,-12.5166 -13.83537,-13.08312 -1.5401,-0.85102 -2.612,-0.29602 -6.16726,3.19321 l -4.30318,4.22325 -3.13173,-2.23 c -1.72245,-1.2265 -2.99719,-2.59664 -2.83273,-3.04476 0.16445,-0.44812 5.99412,-6.6403 12.95483,-13.7604 l 12.65585,-12.94563 3.08665,3.08665 3.08666,3.08665 -4.66869,4.73996 -4.66868,4.73996 13.75968,13.28678 13.75969,13.28677 -3.86222,3.73688 -3.86222,3.73687 z m 374.02872,7.74079 c -2.75,-1.90723 -7.41167,-5.97762 -10.35927,-9.0453 l -5.35926,-5.5776 4.0395,-4.76928 c 2.22173,-2.62311 9.60316,-10.29502 16.40318,-17.0487 l 12.36368,-12.2794 8.17053,8.3708 c 4.4938,4.60393 8.63653,9.59646 9.20609,11.0945 1.86935,4.91677 1.25352,8.52938 -2.01035,11.79325 -2.76351,2.76352 -3.50518,3.00177 -8,2.56987 -4.61796,-0.44373 -6.2888,0.28746 -3.9541,1.73039 0.55,0.33992 1,2.60938 1,5.04324 0,3.44577 -0.62681,5.12673 -2.83201,7.59478 -2.38085,2.66463 -3.69516,3.23502 -8.25,3.58036 -4.88873,0.37066 -5.90642,0.072 -10.41799,-3.05691 z m 11.73469,-9.06117 c 1.58693,-2.37665 0.61121,-5.79716 -2.67141,-9.36499 l -3.43672,-3.73531 -4.06328,3.95295 c -2.2348,2.17412 -4.06328,4.46687 -4.06328,5.09501 0,1.45354 2.68128,3.88648 6.42193,5.82716 2.98161,1.54688 6.06206,0.84709 7.81276,-1.77482 z m 10.2113,-13.21795 c 4.25462,-1.63265 3.69829,-7.22684 -1.15553,-11.61949 -1.83705,-1.6625 -2.07321,-1.56894 -5.85238,2.31857 l -3.93808,4.05099 3.26578,2.93379 c 3.316,2.97891 4.79261,3.42422 7.68021,2.31614 z M 162.856,122.68238 l -14.03034,-18.6034 10.61795,-8.069407 10.61796,-8.069409 2.32986,2.911727 c 1.28142,1.601451 2.33209,3.210902 2.33482,3.576559 0.003,0.365658 -2.18542,2.272729 -4.86257,4.237939 -7.58098,5.564951 -7.74565,5.935591 -4.46421,10.048171 1.55746,1.95195 3.18249,3.54901 3.61117,3.54903 0.42868,2e-5 3.05659,-1.79997 5.8398,-3.99997 2.7832,-2.2 5.43932,-4 5.90248,-4 0.46316,0 1.82235,1.37662 3.02043,3.05916 2.46322,3.45928 2.99868,2.61162 -5.74622,9.0964 l -4.20409,3.11754 3.00213,4.36345 c 3.04414,4.42451 4.27956,5.18614 5.41976,3.34127 0.34746,-0.5622 3.14954,-2.88219 6.22686,-5.15554 l 5.59511,-4.13335 2.33216,2.7113 c 1.28269,1.49121 2.33216,3.08155 2.33216,3.53408 0,0.69381 -17.07308,14.22563 -20.67244,16.3846 -0.74647,0.44775 -6.2699,-6.05568 -15.20278,-17.90015 z m 314.72332,5.06537 c -5.62069,-2.92731 -10.61346,-8.71647 -11.47416,-13.3044 -0.34799,-1.85496 -0.0854,-5.19956 0.58363,-7.43245 1.06845,-3.56616 17.03726,-29.008017 18.94857,-30.189274 0.39971,-0.247035 2.58035,0.777981 4.84586,2.277813 l 4.11912,2.726966 -8.93556,13.311903 c -4.91456,7.321552 -8.98738,14.057422 -9.05071,14.968612 -0.37415,5.38279 1.43508,8.37537 6.03241,9.97801 5.129,1.78798 7.91288,-0.54658 17.50243,-14.67749 4.90583,-7.2291 9.07798,-13.143821 9.27144,-13.143821 1.56684,0 8.14048,5.483864 7.63831,6.37203 -2.76858,4.896661 -15.2157,22.789341 -17.71365,25.463291 -6.31676,6.76182 -13.48371,7.96318 -21.76769,3.64881 z M 195.96989,98.757309 C 190.33862,87.478838 185.73122,78.06898 185.73122,77.846515 c 0,-0.557517 8.41107,-4.583812 9.56572,-4.579014 0.51386,0.0021 7.90928,4.008679 16.43428,8.903431 8.525,4.894751 15.63968,8.765822 15.8104,8.60238 0.17073,-0.163442 -2.64177,-6.18856 -6.25,-13.389151 -3.60822,-7.200591 -6.5604,-13.480065 -6.5604,-13.954388 0,-0.948206 7.79069,-4.726215 8.39822,-4.072626 0.86247,0.927855 20.69374,41.144563 20.41055,41.391453 -0.16982,0.14805 -2.22767,1.2369 -4.57299,2.41968 -4.94269,2.49266 -2.63915,3.3518 -23.09738,-8.614502 -7.89888,-4.620163 -14.50917,-8.252724 -14.68953,-8.072359 -0.18037,0.180366 2.77779,6.392646 6.57368,13.805071 3.7959,7.41242 6.91869,13.80548 6.93954,14.20681 0.0309,0.59468 -7.13249,4.77032 -8.18358,4.77032 -0.16564,0 -4.90857,-9.22784 -10.53984,-20.506311 z m 246.09333,8.171611 c -6.1424,-2.84091 -11.45526,-5.45316 -11.80635,-5.80498 -0.35109,-0.35183 2.6012,-7.77683 6.56066,-16.500004 3.95945,-8.723175 8.24695,-18.206573 9.52777,-21.074218 l 2.32877,-5.213901 4.25964,1.907097 c 2.3428,1.048904 4.38754,2.290782 4.54385,2.759728 0.15632,0.468947 -2.82058,7.625948 -6.61532,15.904447 -3.79474,8.278499 -7.18631,15.955386 -7.53682,17.059747 -0.54895,1.72956 0.40546,2.462583 6.88425,5.287384 4.13685,1.80371 7.52155,3.69104 7.52155,4.19409 0,1.49203 -2.99022,6.82246 -3.77568,6.73061 -0.39838,-0.0466 -5.74992,-2.40908 -11.89232,-5.25 z M 253.28186,91.013619 c -0.82787,-2.8875 -3.49944,-12.990671 -5.93681,-22.451491 l -4.43159,-17.20149 5.07617,-1.488037 c 6.02599,-1.766465 4.98358,-2.331513 18.27695,9.907202 12.37877,11.39668 14.80137,13.480421 15.20422,13.077572 0.17909,-0.179091 -1.31929,-6.720712 -3.32973,-14.536936 -2.06765,-8.03862 -3.27627,-14.578315 -2.7826,-15.056252 0.48001,-0.464715 2.52965,-1.149293 4.55475,-1.521286 l 3.682,-0.676349 1.40311,4.848533 c 0.77171,2.666694 3.37224,12.638308 5.77895,22.159142 4.84095,19.150537 4.91593,18.513171 -2.32185,19.735987 -3.71626,0.627857 -4.08527,0.400629 -14.02046,-8.633484 -5.61206,-5.103072 -12.10343,-11.077252 -14.42526,-13.275956 l -4.2215,-3.997644 3.9715,15.221861 c 2.18433,8.372024 3.97151,15.631982 3.97151,16.133241 0,0.778096 -6.04329,2.982982 -8.22207,2.99981 -0.39713,0.0031 -1.39941,-2.356923 -2.22729,-5.244423 z m 155.60249,3.786332 c -11.24474,-2.720463 -18.15313,-10.792446 -18.15313,-21.210709 0,-15.866937 12.31582,-27.751153 26.96146,-26.016594 4.44947,0.526974 15.03854,4.309058 15.03854,5.371295 0,0.23872 -0.48984,2.37936 -1.08853,4.756979 l -1.08853,4.322944 -4.16147,-2.304658 c -6.48688,-3.592492 -10.85042,-4.026625 -15.90044,-1.581954 -5.87209,2.842632 -8.19706,7.024546 -8.23271,14.808142 -0.0252,5.502888 0.29591,6.520485 2.92405,9.265949 3.33985,3.488948 9.10762,5.399672 14.69201,4.867115 3.59696,-0.343026 3.75027,-0.238493 3.17122,2.162354 -1.4959,6.202398 -2.15346,7.02573 -5.54085,6.93776 -1.80111,-0.04678 -5.68084,-0.667155 -8.62162,-1.378623 z M 303.37332,83.773334 c -1.35889,-3.541203 -0.72396,-6.509715 1.39234,-6.509715 1.83627,0 1.98178,-0.462695 1.49379,-4.75 -0.89994,-7.906588 -2.52823,-24.106339 -2.52823,-25.153169 0,-0.540098 -0.8548,-0.817376 -1.89956,-0.616175 -1.52863,0.294388 -1.98909,-0.351447 -2.35807,-3.307417 -0.25219,-2.020282 -0.3256,-3.832534 -0.16313,-4.027229 0.16248,-0.194694 4.00242,-0.768729 8.53322,-1.275632 9.04166,-1.011576 9.84419,-0.655549 9.87223,4.379622 0.0118,2.115534 -0.46026,2.75 -2.04596,2.75 -1.84739,0 -2.00239,0.441002 -1.49374,4.25 0.59171,4.431104 2.55501,24.299088 2.55501,25.855955 0,0.491725 0.84375,0.894045 1.875,0.894045 1.30784,0 2.06783,0.964167 2.5125,3.1875 0.35062,1.753125 0.29437,3.507821 -0.125,3.899325 -0.41938,0.391504 -4.41105,1.023305 -8.8704,1.404002 -7.05647,0.602416 -8.19116,0.475187 -8.75,-0.981112 z m 28.3579,-0.816157 c -3.32579,-1.13415 -3.51485,-1.449319 -3.79839,-6.332048 l -0.29839,-5.13849 4.71787,2.38849 c 5.43041,2.749226 10.9554,3.073857 14.1564,0.831786 4.58383,-3.210636 2.59191,-6.282117 -7.27749,-11.221662 -7.81485,-3.911263 -9.68673,-6.109587 -10.25714,-12.0459 -0.95245,-9.912355 5.28837,-15.203176 17.75714,-15.054092 10.49729,0.125512 11.44702,0.632034 11.8101,6.298655 0.27851,4.346756 0.1257,4.760509 -1.5,4.061408 -8.32887,-3.581666 -17.3101,-2.551955 -17.3101,1.984628 0,2.835647 1.98646,4.551874 9.78384,8.452855 7.17151,3.587862 10.2067,7.564619 10.21242,13.380472 0.009,8.900473 -6.31077,13.683923 -17.99626,13.621936 -3.575,-0.01896 -8.075,-0.571581 -10,-1.228038 z"
     id="path898"
     inkscape:connector-curvature="0" />
</svg>
