<?xml version="1.0" encoding="UTF-8" standalone="no"?>
<svg
   xmlns:dc="http://purl.org/dc/elements/1.1/"
   xmlns:cc="http://creativecommons.org/ns#"
   xmlns:rdf="http://www.w3.org/1999/02/22-rdf-syntax-ns#"
   xmlns:svg="http://www.w3.org/2000/svg"
   xmlns="http://www.w3.org/2000/svg"
   xmlns:sodipodi="http://sodipodi.sourceforge.net/DTD/sodipodi-0.dtd"
   xmlns:inkscape="http://www.inkscape.org/namespaces/inkscape"
   version="1.1"
   id="svg869"
   width="80"
   height="80"
   viewBox="0 0 80 80"
   sodipodi:docname="tcsellesFullLogoLoading.svg"
   inkscape:version="1.0.2-2 (e86c870879, 2021-01-15)">
  <metadata
     id="metadata875">
    <rdf:RDF>
      <cc:Work
         rdf:about="">
        <dc:format>image/svg+xml</dc:format>
        <dc:type
           rdf:resource="http://purl.org/dc/dcmitype/StillImage" />
        <dc:title></dc:title>
      </cc:Work>
    </rdf:RDF>
  </metadata>
  <defs
     id="defs873" />
  <sodipodi:namedview
     pagecolor="#ffffff"
     bordercolor="#666666"
     borderopacity="1"
     objecttolerance="10"
     gridtolerance="10"
     guidetolerance="10"
     inkscape:pageopacity="0"
     inkscape:pageshadow="2"
     inkscape:window-width="1920"
     inkscape:window-height="1017"
     id="namedview871"
     showgrid="false"
     inkscape:zoom="0.70710678"
     inkscape:cx="316.99695"
     inkscape:cy="296.02698"
     inkscape:window-x="-8"
     inkscape:window-y="-8"
     inkscape:window-maximized="1"
     inkscape:current-layer="svg869"
     inkscape:document-rotation="0" />
  <path
     style="fill:#000000;stroke-width:0.121901"
     d="M 36.994618,79.909285 C 24.573174,78.900877 13.486139,72.397955 6.6256426,62.096851 2.9607355,56.593959 0.70512068,50.201195 0.12076732,43.661027 -0.06230295,41.612084 -0.03332843,37.817313 0.18115428,35.752127 1.4678137,23.363295 8.598722,12.21684 19.407384,5.699255 30.05108,-0.71885776 43.233887,-1.7817615 54.825274,2.8435802 61.788153,5.621996 67.471192,10.006558 72.283006,16.312519 c 1.314462,1.722623 3.175991,4.897802 4.187391,7.142356 2.448712,5.434318 3.518402,10.429637 3.529509,16.48236 0.009,4.926065 -0.623602,8.774904 -2.177417,13.246933 -4.535345,13.053147 -15.892441,23.081399 -29.373531,25.936663 -3.418129,0.723951 -8.196943,1.0529 -11.45434,0.788454 z m 5.355283,-0.600391 C 50.732283,78.726847 58.173118,75.859075 64.585876,70.738924 78.413907,59.69818 83.181781,40.902523 76.284655,24.620628 74.3469,20.046209 71.548354,15.919686 67.915203,12.279667 64.968418,9.3273117 61.647218,6.8719037 58.233181,5.1216169 52.225401,2.0415868 46.552584,0.65391961 39.976537,0.65573265 26.382085,0.65948084 13.823249,7.6236932 6.5679922,19.181672 c -5.291029,8.428862 -7.17076986,18.663532 -5.2247533,28.44733 0.7506191,3.773817 1.7402732,6.625238 3.5171077,10.133599 1.1726289,2.315359 1.9675963,3.594187 3.5676579,5.739135 6.9253115,9.283665 17.4323935,15.011252 28.9926015,15.804352 2.002341,0.137372 2.983276,0.13793 4.929295,0.0028 z M 36.469566,76.50163 C 35.92135,76.336558 35.831597,76.200601 35.878694,75.606588 l 0.04352,-0.548899 0.55433,0.295662 c 0.66776,0.356162 1.358298,0.382167 1.747753,0.06582 0.248527,-0.201873 0.265515,-0.268239 0.13962,-0.545413 -0.08724,-0.192049 -0.419005,-0.456211 -0.8476,-0.674872 -1.213518,-0.619111 -1.574269,-1.13105 -1.438735,-2.0417 0.167544,-1.125733 1.403585,-1.624976 3.112787,-1.257271 0.554895,0.119372 0.617575,0.164158 0.555352,0.396797 -0.03857,0.144229 -0.07088,0.420049 -0.0718,0.612934 -0.0012,0.265786 -0.0385,0.320411 -0.1538,0.225599 -0.262194,-0.215602 -1.191276,-0.411551 -1.563013,-0.329648 -0.444868,0.09802 -0.656967,0.451265 -0.475345,0.79169 0.07182,0.13461 0.44344,0.404125 0.82583,0.598922 0.382391,0.194795 0.852132,0.520013 1.04387,0.722705 0.698987,0.738925 0.490598,2.008383 -0.407571,2.482816 -0.455811,0.24077 -1.823148,0.295977 -2.474326,0.0999 z m 5.90689,-0.201025 c -0.488089,-0.241321 -0.812192,-0.679077 -0.980418,-1.324216 -0.157608,-0.604419 -0.533262,-3.858786 -0.454537,-3.937755 0.03166,-0.03175 0.300978,-0.08526 0.598497,-0.118892 0.650263,-0.07353 0.62078,-0.138943 0.810819,1.799079 0.172394,1.758078 0.300984,2.261465 0.638211,2.498408 0.40935,0.287617 1.026338,0.237314 1.374635,-0.112074 0.355142,-0.356251 0.371015,-0.73502 0.123028,-2.935747 -0.09079,-0.805804 -0.144384,-1.486784 -0.119077,-1.513286 0.0253,-0.0265 0.310406,-0.07367 0.633551,-0.104812 l 0.587533,-0.05663 0.157228,1.643557 c 0.254227,2.657488 0.190188,3.212176 -0.436534,3.781125 -0.633525,0.575125 -2.143762,0.771443 -2.932941,0.381254 z m 5.937282,-0.711545 c 0,-0.06689 -1.452289,-5.026373 -1.535813,-5.244712 -0.0539,-0.140888 1.294676,-0.591961 2.396399,-0.801551 1.221478,-0.232372 1.938766,0.292213 1.938766,1.417907 0,0.549335 -0.05706,0.715975 -0.365972,1.068912 -0.365708,0.417822 -0.365774,0.418174 -0.09129,0.490836 0.29548,0.07822 2.161207,1.623256 2.161207,1.789732 0,0.05522 -0.295113,0.166651 -0.655805,0.247623 l -0.655806,0.147221 -0.925829,-0.809968 c -1.391986,-1.217792 -1.730225,-1.093997 -1.29194,0.47284 0.144104,0.51516 0.244079,0.949308 0.222168,0.964775 -0.05956,0.04204 -1.029782,0.316337 -1.118931,0.316337 -0.04244,0 -0.07716,-0.02698 -0.07716,-0.05995 z m 1.369248,-3.73878 c 0.282828,-0.341716 0.270128,-0.873125 -0.02732,-1.143155 -0.187846,-0.17053 -0.351397,-0.200344 -0.749083,-0.136553 -0.279824,0.04489 -0.551415,0.108049 -0.603538,0.140363 -0.05212,0.03232 -0.01157,0.318748 0.09007,0.636519 0.101662,0.317771 0.208385,0.653141 0.237171,0.745266 0.0757,0.242274 0.78713,0.07844 1.052706,-0.24244 z m -20.782148,3.211537 c -1.10329,-0.469738 -1.122028,-0.495965 -0.907611,-1.270416 l 0.125573,-0.453559 0.545939,0.418027 c 0.568147,0.435032 1.197768,0.628544 1.61395,0.496039 0.573968,-0.18274 0.372354,-0.843512 -0.46276,-1.516644 -1.217822,-0.981607 -1.318713,-2.190766 -0.243907,-2.923154 0.358453,-0.244255 0.537419,-0.281359 1.154482,-0.239348 0.768205,0.05231 2.008707,0.515605 2.00755,0.74978 -3.64e-4,0.07567 -0.05692,0.340738 -0.125676,0.589044 l -0.124997,0.451464 -0.436444,-0.297105 c -0.877134,-0.5971 -1.688501,-0.635648 -1.825838,-0.08674 -0.06557,0.262077 0.04154,0.420293 0.735326,1.086124 0.825562,0.792302 1.048043,1.155966 1.048043,1.713118 0,0.433862 -0.45926,1.20831 -0.812214,1.36963 -0.437982,0.200181 -1.73316,0.151426 -2.291416,-0.08625 z m -4.199027,-1.666465 c -0.908713,-0.42153 -1.385717,-0.70759 -1.359881,-0.815521 0.02188,-0.09143 0.536514,-1.273758 1.143615,-2.627384 l 1.10382,-2.46114 0.925471,0.424469 c 0.509009,0.233459 1.183862,0.536592 1.499674,0.673632 l 0.574203,0.249161 -0.182533,0.43823 c -0.100394,0.241028 -0.199668,0.455419 -0.220609,0.476427 -0.02095,0.02101 -0.431909,-0.136299 -0.913257,-0.349571 -0.528609,-0.234212 -0.919153,-0.34355 -0.986228,-0.276107 -0.06107,0.06141 -0.196753,0.317592 -0.301506,0.569289 l -0.190462,0.457631 0.842554,0.377914 0.842552,0.377911 -0.184389,0.446419 c -0.101416,0.245528 -0.20057,0.463845 -0.22035,0.485148 -0.01978,0.0213 -0.301565,-0.0952 -0.626192,-0.258895 -1.035772,-0.522293 -1.055861,-0.520635 -1.362453,0.112394 -0.150401,0.310538 -0.257256,0.58068 -0.23746,0.600315 0.0198,0.01963 0.460957,0.229858 0.980352,0.467157 l 0.944355,0.431456 -0.206204,0.433768 c -0.113416,0.238569 -0.264522,0.429896 -0.3358,0.425169 -0.07127,-0.0047 -0.759451,-0.300772 -1.529272,-0.657875 z m -4.259885,-2.273178 c -0.70288,-0.463926 -1.329907,-0.861249 -1.393393,-0.882942 -0.129937,-0.04439 2.842382,-4.84591 2.999802,-4.84591 0.154165,0 0.946304,0.536783 0.948015,0.64241 8.53e-4,0.05115 -0.54332,0.957679 -1.209219,2.014511 l -1.210726,1.921513 0.77889,0.492673 c 0.428388,0.27097 0.817705,0.531612 0.865149,0.579205 0.08682,0.08709 -0.318308,0.951539 -0.436946,0.932336 -0.03498,-0.0057 -0.63869,-0.389871 -1.341572,-0.853796 z m 36.512503,0.626032 c -2.228287,-0.666101 -3.001139,-3.768591 -1.298123,-5.211109 0.422359,-0.357755 1.495616,-0.897098 1.785753,-0.897392 0.100419,-1.02e-4 0.29961,0.216124 0.442663,0.480503 l 0.260096,0.480688 -0.381807,0.07969 c -1.496384,0.312307 -2.1846,1.593379 -1.503777,2.799195 0.343187,0.607824 0.971829,1.041388 1.50995,1.041388 0.541082,0 1.279285,-0.385952 1.652035,-0.863727 l 0.29813,-0.382129 0.26103,0.423679 c 0.143568,0.233024 0.261033,0.479477 0.261033,0.547675 0,0.207402 -0.889905,0.945143 -1.465824,1.215186 -0.633018,0.296815 -1.388685,0.415634 -1.821159,0.286355 z m 4.23372,-3.402038 c -0.441575,-0.516084 -1.275616,-1.487747 -1.853422,-2.159251 l -1.050559,-1.220915 0.454026,-0.399247 c 0.249713,-0.219585 0.491621,-0.384409 0.537571,-0.366275 0.04596,0.01813 0.400233,0.406482 0.787291,0.862991 l 0.703744,0.830017 0.437145,-0.410139 c 0.24043,-0.225576 0.64182,-0.583046 0.89198,-0.794375 l 0.45484,-0.384236 -0.72869,-0.847189 c -0.400776,-0.465956 -0.728686,-0.871124 -0.728686,-0.900373 0,-0.02926 0.211299,-0.223519 0.469554,-0.431709 l 0.469556,-0.378524 0.960549,1.116934 c 0.528301,0.614315 1.361457,1.584468 1.851457,2.155898 l 0.890908,1.038964 -0.447931,0.399841 c -0.246363,0.219913 -0.482961,0.396166 -0.525776,0.391675 -0.04282,-0.0046 -0.3979,-0.389634 -0.789079,-0.855873 l -0.711236,-0.847708 -0.384162,0.323619 c -0.21129,0.177992 -0.618731,0.530441 -0.905424,0.78322 l -0.521261,0.459599 0.732139,0.835727 c 0.402676,0.459649 0.733091,0.872316 0.734255,0.917036 0.0012,0.04471 -0.206693,0.247206 -0.461904,0.449968 l -0.464019,0.36866 z m -44.873397,-0.21424 c -0.67546,-0.575429 -1.228108,-1.065713 -1.228108,-1.089521 0,-0.09626 3.550634,-4.274053 3.63244,-4.274053 0.04855,0 0.287232,0.164823 0.530407,0.366274 l 0.442133,0.366276 -1.50586,1.796129 -1.505861,1.79613 0.694331,0.578899 c 0.381881,0.318394 0.74214,0.618463 0.800577,0.666817 0.113292,0.09375 -0.357089,0.839281 -0.529526,0.839281 -0.05633,0 -0.655074,-0.470804 -1.330533,-1.046232 z m -3.64973,-3.476932 c -0.614445,-0.686713 -1.101414,-1.293095 -1.082156,-1.347515 0.01926,-0.05443 0.477748,-0.500164 1.018862,-0.990542 0.541115,-0.490375 1.459908,-1.32541 2.041763,-1.855633 l 1.057917,-0.964042 0.868725,0.942371 c 1.420174,1.540568 1.368241,1.439101 0.944821,1.846033 l -0.360689,0.346641 -0.617557,-0.69505 c -0.339657,-0.382276 -0.679032,-0.695049 -0.754166,-0.695049 -0.07514,0 -0.314432,0.172891 -0.53177,0.384203 l -0.395162,0.384202 0.604148,0.679958 0.604147,0.679959 -0.35819,0.35931 -0.358191,0.359312 -0.631043,-0.692619 -0.631041,-0.69262 -0.462784,0.398495 c -0.25453,0.219172 -0.467419,0.430336 -0.473084,0.469257 -0.0057,0.03892 0.299347,0.414007 0.67781,0.83353 l 0.688113,0.762768 -0.366651,0.367799 -0.366652,0.367798 z m 21.430507,0.0363 c 0.3732,-1.37725 2.100498,-3.205433 4.785608,-5.065116 10.674989,-7.393394 16.397448,-11.709627 19.054739,-14.372266 2.494565,-2.499584 3.662766,-5.139786 3.675974,-8.307922 0.0166,-3.981621 -1.774469,-7.565172 -5.290269,-10.584704 -2.820701,-2.422548 -5.878772,-3.742405 -9.055159,-3.90819 -1.179003,-0.06154 -1.466135,-0.03564 -2.248583,0.202761 -1.749131,0.532944 -3.103483,1.402688 -4.747938,3.049054 -0.641944,0.64269 -1.586725,1.740194 -2.099516,2.438899 -0.51279,0.698705 -0.932345,1.225202 -0.932345,1.169993 0,-0.214151 1.90328,-3.7331 2.817833,-5.209859 2.330885,-3.763749 5.135405,-6.677378 7.44625,-7.735945 2.095181,-0.959771 3.80821,-0.880124 6.547194,0.304409 7.113188,3.076251 11.768171,9.670896 12.759316,18.075934 0.508011,4.308 -0.04342,7.603274 -1.63231,9.754378 -0.73585,0.996225 -2.154398,2.276348 -3.900368,3.519763 -2.476693,1.763808 -7.039076,4.934222 -9.006611,6.258724 -0.937175,0.630885 -1.950418,1.318161 -2.251653,1.527281 -2.025534,1.406147 -7.72291,5.017428 -10.357095,6.564848 -2.021348,1.187413 -5.217377,2.775801 -5.585253,2.775801 -0.05713,0 -0.04805,-0.20603 0.02019,-0.457843 z m 13.894538,0.151389 c 4.292092,-1.787989 7.921381,-4.527278 9.930756,-7.495467 0.578604,-0.854697 1.414397,-2.54885 1.309408,-2.65417 -0.03788,-0.03801 -0.661111,0.127546 -1.384943,0.367887 -1.256344,0.417153 -3.509656,1.05247 -3.735166,1.053122 -0.05863,1.22e-4 0.638454,-0.452958 1.549073,-1.006948 3.338581,-2.031082 6.572373,-4.451155 8.751914,-6.549672 l 1.197679,-1.153157 -0.266898,0.722819 c -1.560352,4.225789 -4.149988,8.273023 -7.186532,11.231537 -2.978217,2.901682 -6.138574,4.683787 -9.963332,5.618254 -0.960842,0.234754 -1.009704,0.202283 -0.201959,-0.134205 z M 65.10985,62.624691 c -1.171467,-0.979132 -2.129941,-1.825951 -2.129941,-1.88182 0,-0.153742 1.879018,-2.430863 2.005883,-2.430863 0.06076,0 0.26177,0.130536 0.446674,0.290081 l 0.336188,0.290081 -0.65592,0.759505 -0.655919,0.759504 0.478656,0.413182 0.478657,0.41318 0.608555,-0.670832 c 0.334704,-0.368957 0.641113,-0.670085 0.680908,-0.669171 0.03979,8.54e-4 0.227518,0.135408 0.417168,0.298877 l 0.344814,0.297219 -0.594485,0.698027 -0.594485,0.698029 0.474269,0.411256 c 0.260849,0.22619 0.510922,0.396418 0.555719,0.378284 0.0448,-0.01813 0.366255,-0.377847 0.714351,-0.799359 l 0.632902,-0.766389 0.35121,0.278022 c 0.193167,0.152911 0.354242,0.320334 0.357946,0.372051 0.0054,0.07578 -2.059461,2.667579 -2.10903,2.647202 -0.0078,-0.0032 -0.972651,-0.806934 -2.14412,-1.786066 z M 26.162342,62.204962 C 20.813103,58.76458 16.694375,53.689766 14.79355,48.197115 c -0.725817,-2.097325 -0.587066,-2.473413 0.811864,-2.200579 1.174063,0.228976 3.975918,0.19208 5.201646,-0.06849 3.167143,-0.673303 5.873553,-2.178567 8.359921,-4.64966 l 1.361542,-1.353175 -0.439202,0.799607 c -2.488925,4.531316 -6.837883,7.959086 -11.381775,8.97091 -0.309209,0.06885 -0.334705,0.119877 -0.334705,0.669803 0,0.327398 0.115827,0.971911 0.257393,1.432248 0.756171,2.458884 2.606954,5.008602 6.390224,8.803453 1.2887,1.292645 2.332977,2.349616 2.320614,2.348824 -0.01236,-7.32e-4 -0.54279,-0.33608 -1.17873,-0.745086 z M 10.157351,61.22242 C 9.4605054,60.837512 8.3925411,59.339658 8.3925411,58.747216 c 0,-0.100221 0.2053871,-0.322673 0.456416,-0.494341 0.4105723,-0.280772 0.4604012,-0.290413 0.4960825,-0.09598 0.2040147,1.111758 0.6776864,1.864389 1.1733604,1.864389 0.481494,0 0.595718,-0.278735 0.488659,-1.192442 -0.128167,-1.093841 -0.09346,-1.60513 0.132419,-1.950948 0.260518,-0.398844 0.895325,-0.762659 1.330382,-0.762457 0.444583,2.43e-4 1.138486,0.413278 1.570892,0.935136 0.300337,0.362469 0.871651,1.495452 0.782213,1.551222 -0.02233,0.01392 -0.240196,0.172545 -0.484148,0.352496 l -0.44355,0.327183 -0.07408,-0.393167 c -0.09877,-0.524256 -0.475693,-1.125581 -0.866562,-1.38249 -0.304935,-0.200425 -0.32847,-0.198462 -0.574071,0.0479 -0.246453,0.247224 -0.25029,0.296085 -0.101834,1.29705 0.141203,0.952074 0.135215,1.07913 -0.07072,1.500516 -0.40192,0.822404 -1.383751,1.239487 -2.050652,0.87112 z m 57.934418,-2.365738 c -1.271879,-0.769482 -2.358791,-1.414591 -2.41536,-1.433575 -0.0928,-0.03114 0.808167,-1.627576 1.259106,-2.231041 0.59834,-0.80072 1.438014,-1.000759 2.15033,-0.512277 0.460846,0.316033 0.70115,0.808773 0.68435,1.403254 -0.0097,0.342449 0.02331,0.399036 0.189472,0.325044 0.110658,-0.04928 0.824374,-0.114204 1.586044,-0.144284 1.145934,-0.04526 1.367893,-0.02601 1.286533,0.111594 -0.05408,0.09146 -0.226097,0.372319 -0.382267,0.624132 l -0.283945,0.457844 h -1.196718 c -1.00479,0 -1.229024,0.0358 -1.398149,0.223274 -0.110794,0.122806 -0.20143,0.276209 -0.20143,0.340907 0,0.0647 0.355955,0.326508 0.791011,0.581801 0.435058,0.255294 0.820852,0.512604 0.857322,0.571799 0.06585,0.10688 -0.436427,1.092037 -0.552935,1.084515 -0.03348,-0.0022 -1.101485,-0.633504 -2.373364,-1.402987 z m 0.578127,-1.65416 c 0.279943,-0.493391 0.269483,-0.9094 -0.03042,-1.210248 -0.244874,-0.245641 -0.681772,-0.31733 -0.918696,-0.150746 -0.07017,0.04933 -0.250968,0.266949 -0.401781,0.483585 l -0.274207,0.393886 0.645204,0.424049 c 0.354861,0.233227 0.672588,0.426485 0.706059,0.429461 0.03346,0.003 0.156702,-0.163519 0.273848,-0.369987 z m -43.35953,-1.53498 c -1.375298,-0.21376 -2.597741,-0.80808 -3.564221,-1.732827 -1.048994,-1.003699 -1.087517,-1.208216 -0.107827,-0.572481 1.658288,1.076096 3.344796,1.396977 5.127272,0.975539 1.881046,-0.444747 3.429397,-1.410439 5.36876,-3.348448 1.206186,-1.205343 1.488664,-1.565443 1.972106,-2.51401 0.971512,-1.906222 1.29463,-3.586211 1.055809,-5.489491 -0.437402,-3.48588 1.408471,-7.88728 4.464272,-10.644854 3.213206,-2.899616 6.808069,-4.429754 10.407149,-4.429754 1.030137,0 1.253392,0.190281 0.262992,0.22415 -2.922252,0.09994 -6.893224,2.025515 -9.44835,4.581643 -1.740862,1.741546 -2.907748,3.716435 -3.508692,5.938264 -0.226948,0.839073 -0.28007,1.341681 -0.277445,2.624968 0.003,1.443161 0.0346,1.670052 0.348689,2.500312 1.402717,3.707844 4.5084,5.283532 8.674859,4.40125 5.408475,-1.145289 9.037642,-4.340578 10.889442,-9.587576 0.4732,-1.340793 0.299915,-0.421871 -0.218723,1.15987 -1.341191,4.090371 -3.920156,7.108193 -7.51976,8.799373 -2.234351,1.049752 -3.512279,1.326583 -6.704226,1.452296 -2.263375,0.08915 -2.655689,0.135802 -3.42747,0.407637 -1.427216,0.502692 -2.803359,1.200848 -4.544598,2.305604 -0.903705,0.573369 -2.026487,1.235919 -2.495076,1.472334 -2.2856,1.153147 -5.007037,1.747879 -6.754957,1.476201 z m 10.640258,-5.164667 c 0.703043,-0.347196 1.795194,-0.755661 2.558826,-0.957004 0.732746,-0.1932 1.352389,-0.411829 1.376982,-0.485842 0.02459,-0.07402 -0.27369,-0.285546 -0.662854,-0.470071 -0.944208,-0.4477 -1.861105,-1.39069 -2.404317,-2.47274 -0.242576,-0.483199 -0.486834,-0.85016 -0.542793,-0.815468 -0.05596,0.0347 -0.139825,0.352752 -0.186369,0.706799 -0.135465,1.030405 -0.786371,2.831341 -1.361563,3.767194 -0.42906,0.69809 -0.507205,0.909409 -0.406265,1.098608 0.06874,0.128843 0.187263,0.23426 0.263386,0.23426 0.07612,0 0.690358,-0.27258 1.364967,-0.605736 z m 7.677241,-2.826483 c -1.242364,-0.08473 -2.013432,-0.344094 -3.024718,-1.017446 -0.847333,-0.564185 -1.050899,-0.826911 -0.240138,-0.309924 1.470069,0.937399 3.781228,1.192618 5.632216,0.621957 3.836701,-1.182857 7.443674,-4.659632 8.627111,-8.315706 0.879118,-2.715921 0.419412,-5.64156 -1.134291,-7.218811 -1.212482,-1.230858 -2.824334,-1.763775 -4.991741,-1.650392 -0.736352,0.03852 -1.475745,0.100985 -1.643098,0.138815 -0.285362,0.06451 -0.287636,0.06135 -0.03657,-0.05055 0.981214,-0.437341 3.419704,-0.626889 4.686018,-0.364251 0.786786,0.163184 1.849516,0.674152 2.510731,1.207182 0.625163,0.503965 1.408039,1.620417 1.822507,2.59906 0.294223,0.694717 0.322352,0.90311 0.325142,2.408749 0.0044,2.369203 -0.460911,3.8124 -1.955742,6.066017 -1.745656,2.631764 -4.072981,4.437783 -6.976008,5.413428 -1.353236,0.454793 -2.208549,0.566859 -3.601426,0.471871 z m 0.740892,-3.469563 c 0.727773,-0.438463 1.366643,-0.840762 1.419712,-0.893998 0.05307,-0.05323 -0.01842,-0.35738 -0.158869,-0.675878 -0.242092,-0.549002 -0.269106,-0.570326 -0.519991,-0.41048 -0.145548,0.09273 -0.690679,0.432646 -1.211403,0.755365 -0.683818,0.423795 -0.930499,0.641981 -0.888185,0.785589 0.03222,0.109354 0.09055,0.363651 0.129609,0.565103 0.05841,0.301223 0.03433,0.279539 -0.135577,-0.122093 -0.113637,-0.268602 -0.219839,-0.505933 -0.236016,-0.527405 -0.01617,-0.02148 -0.253803,0.07579 -0.528053,0.21614 -0.610239,0.312294 -0.653109,0.24381 -0.07265,-0.116062 0.234293,-0.145254 0.425988,-0.321606 0.425988,-0.391893 0,-0.07029 -0.169629,-0.425203 -0.376954,-0.788701 L 41.839415,41.94161 41.41829,42.190857 c -0.577925,0.342049 -0.670629,0.310459 -0.194216,-0.06619 0.217558,-0.171997 0.39556,-0.359466 0.39556,-0.416598 0,-0.250022 -0.649834,-0.865423 -0.838011,-0.793606 -0.157602,0.06015 -0.166368,0.04452 -0.04425,-0.07888 0.12208,-0.123368 0.0751,-0.233764 -0.23687,-0.556646 -0.464851,-0.481104 -0.343988,-0.526843 0.23055,-0.08725 l 0.412362,0.315508 0.6818,-0.590214 c 0.374991,-0.324617 0.841193,-0.727566 1.036004,-0.895441 l 0.354202,-0.305229 -0.82832,-0.909212 c -0.685275,-0.752196 -0.757666,-0.868162 -0.419179,-0.671504 0.225029,0.13074 0.644208,0.443739 0.931509,0.695552 0.287301,0.251814 0.567142,0.457844 0.621869,0.457844 0.147845,0 1.506695,-1.375905 1.503453,-1.522323 -0.0027,-0.124008 -0.630473,-0.897566 -1.943657,-2.395202 l -0.668477,-0.762374 0.546766,0.343057 c 0.776498,0.487195 1.430307,0.996076 2.108387,1.641031 l 0.587931,0.559209 0.47671,-0.549412 c 0.262191,-0.302177 0.47686,-0.593907 0.477041,-0.648289 1.22e-4,-0.05439 -0.260417,-0.38403 -0.579106,-0.73255 -0.318689,-0.34852 -0.688387,-0.768869 -0.82155,-0.934108 l -0.242113,-0.300437 0.365134,0.228625 c 0.200822,0.125743 0.672934,0.464682 1.049138,0.753195 l 0.684006,0.524571 0.32011,-0.45131 c 0.176059,-0.248219 0.318891,-0.397019 0.317402,-0.330665 -0.0015,0.06635 -0.10981,0.257993 -0.240715,0.425869 -0.130905,0.167876 -0.239226,0.34964 -0.240716,0.40392 -0.0034,0.125859 1.004463,1.411546 1.11371,1.420639 0.04503,0.0037 0.339143,-0.295268 0.653588,-0.664479 l 0.571715,-0.671293 -0.311101,-0.409152 C 49.07785,33.992478 48.64681,33.487539 48.291091,33.095424 47.68971,32.432513 47.673428,32.399098 48.05905,32.619203 c 0.228096,0.130192 0.736673,0.532888 1.130171,0.89488 l 0.715451,0.658168 0.322843,-0.291893 0.322845,-0.291893 -0.244163,0.349181 -0.244163,0.349181 0.553153,0.839435 0.553154,0.839434 0.519844,-0.511782 c 0.285914,-0.281481 0.550433,-0.608464 0.58782,-0.726629 0.0775,-0.244955 -0.630037,-1.267114 -1.570029,-2.268167 -0.331035,-0.352539 -0.562729,-0.64098 -0.514874,-0.64098 0.231428,0 1.219387,0.814075 1.88278,1.551406 l 0.74064,0.823185 0.37473,-0.424223 c 0.389143,-0.44054 0.365134,-0.297839 -0.04501,0.267529 l -0.236117,0.325478 0.43655,1.019576 c 0.464138,1.084004 0.877397,2.515912 0.760076,2.633599 -0.03883,0.03895 -0.0706,-0.01 -0.0706,-0.108603 0,-0.196824 -0.848144,-2.00623 -1.237763,-2.640609 l -0.244779,-0.398549 -0.602325,0.755856 c -0.397198,0.498439 -0.574674,0.821278 -0.521129,0.947959 0.09492,0.224565 0.519705,1.335199 0.605809,1.583925 0.04547,0.131337 0.134565,0.103065 0.384853,-0.122092 l 0.325688,-0.292994 -0.320531,0.396228 c -0.276104,0.341311 -0.304816,0.451196 -0.207153,0.792791 0.06236,0.218107 0.109058,0.479334 0.103766,0.580502 -0.01046,0.200685 0.0052,0.229878 -0.25653,-0.47882 -0.107434,-0.290932 -0.124386,-0.28178 -0.90477,0.488367 -0.863148,0.851823 -0.854041,0.818753 -0.594321,2.158299 0.03582,0.18471 -0.05956,0.02518 -0.211946,-0.354503 L 50.075962,40.632111 49.76853,40.89513 c -0.16909,0.144661 -0.482335,0.409633 -0.696103,0.588826 l -0.388668,0.325808 0.240979,0.945162 c 0.34458,1.351512 0.285184,1.604631 -0.128712,0.548498 -0.195501,-0.498858 -0.403937,-0.955647 -0.463192,-1.015087 -0.06251,-0.06271 -0.519479,0.164306 -1.088517,0.540739 -0.758208,0.501575 -0.98613,0.718081 -1.004343,0.954042 -0.01657,0.21463 -0.04009,0.24181 -0.07922,0.09157 -0.03061,-0.117514 -0.07102,-0.21366 -0.0898,-0.21366 -0.01877,0 -0.667863,0.302176 -1.442423,0.671503 -0.774562,0.369328 -1.447603,0.671504 -1.495647,0.671504 -0.04805,0 0.508096,-0.358743 1.235867,-0.797205 z m 0.0198,-2.062953 c 0.35144,-0.271779 0.638982,-0.540025 0.638982,-0.596102 0,-0.105206 -0.605755,-1.183219 -0.664875,-1.183219 -0.09898,0 -2.073621,1.375209 -2.073621,1.444141 0,0.04511 0.132937,0.39701 0.295416,0.782019 l 0.295415,0.700018 0.434851,-0.326359 c 0.239168,-0.179496 0.722392,-0.548721 1.073832,-0.820498 z m 2.738056,0.279626 c 0.485565,-0.344886 0.905826,-0.647224 0.933912,-0.671859 0.08139,-0.07138 -0.507422,-1.264997 -0.624026,-1.264997 -0.05794,0 -0.463566,0.287946 -0.901374,0.639881 -0.677334,0.544478 -0.786869,0.685552 -0.734667,0.946209 0.083,0.414465 0.301869,0.977833 0.379883,0.977833 0.03488,0 0.460707,-0.282181 0.946272,-0.627067 z m -4.544781,-1.285515 c 1.349957,-1.004091 1.479188,-1.141835 1.334615,-1.422542 -0.382098,-0.741888 -0.403591,-0.740054 -1.567455,0.133733 l -1.076267,0.808021 0.325592,0.394276 c 0.179076,0.21685 0.375193,0.398241 0.435816,0.403089 0.06062,0.0048 0.307086,-0.137612 0.547699,-0.316577 z m 7.225888,-0.772906 c 0.105699,-0.08949 -0.486097,-1.465625 -0.630277,-1.465625 -0.05067,0 -0.328316,0.212299 -0.616978,0.471776 -0.569098,0.511557 -0.5777,0.583198 -0.18363,1.529293 l 0.191882,0.460674 0.572347,-0.458133 C 49.455856,40.651093 49.755851,40.409 49.80772,40.365081 Z m -3.471273,0.22961 c 0.418098,-0.343477 0.760179,-0.674217 0.760179,-0.734976 0,-0.08857 -0.526122,-1.008708 -0.678935,-1.187396 -0.02069,-0.0242 -0.38762,0.25385 -0.815388,0.617887 l -0.777762,0.661883 0.309238,0.633554 c 0.170082,0.348454 0.339219,0.633552 0.375863,0.633552 0.03664,0 0.408705,-0.281026 0.826805,-0.624504 z m 4.999399,-1.608342 0.527036,-0.543416 -0.376648,-0.74847 c -0.207157,-0.41166 -0.426251,-0.748471 -0.486874,-0.748471 -0.173168,0 -1.357535,1.382984 -1.30419,1.522902 0.02628,0.06894 0.146112,0.438465 0.266293,0.821183 l 0.21851,0.695849 0.314419,-0.22808 c 0.17293,-0.125445 0.551584,-0.472619 0.841454,-0.771497 z m -6.013838,-0.09914 c 0.373572,-0.34249 0.677695,-0.685872 0.675833,-0.763072 -0.0018,-0.07721 -0.156689,-0.343423 -0.344059,-0.591604 l -0.340673,-0.451241 -0.754117,0.790023 -0.754118,0.790023 0.337484,0.424287 c 0.185615,0.233358 0.374146,0.424287 0.418957,0.424289 0.04481,3e-6 0.387124,-0.280215 0.760693,-0.622705 z m 3.513248,-0.771354 c -0.04186,-0.07264 -0.237345,-0.370864 -0.434421,-0.662709 l -0.358317,-0.530626 -0.526789,0.51862 -0.526789,0.518622 0.375169,0.72312 0.375171,0.72312 0.586038,-0.579032 c 0.322322,-0.318466 0.551793,-0.638469 0.509938,-0.711115 z m 1.133415,-0.834108 c 0.872788,-0.92707 0.858646,-0.842377 0.282727,-1.693108 L 49.73644,34.827957 49.443211,35.18495 c -0.161276,0.196346 -0.428472,0.529448 -0.593769,0.740224 l -0.300542,0.383232 0.399691,0.744083 c 0.21983,0.409247 0.429365,0.744998 0.465633,0.746117 0.03627,0.0011 0.285771,-0.231469 0.55445,-0.516858 z m -2.656823,-0.245884 0.509328,-0.52059 -0.453558,-0.601978 c -0.249457,-0.331089 -0.504586,-0.60503 -0.566952,-0.608758 -0.06236,-0.0037 -0.297399,0.250188 -0.522292,0.564257 l -0.408895,0.571034 0.400579,0.550755 c 0.220318,0.302915 0.430254,0.554157 0.466521,0.558312 0.03627,0.0042 0.29514,-0.226707 0.575269,-0.513032 z m -30.360085,6.693601 c -0.758021,-0.23776 -1.3131,-0.624004 -1.909373,-1.328608 -1.195099,-1.412222 -1.697446,-2.996787 -1.690621,-5.332769 0.0087,-2.982999 0.762606,-5.749604 2.482229,-9.109218 3.8773,-7.575042 9.86916,-12.717425 16.56474,-14.21633 1.367008,-0.306025 1.370953,-0.305047 0.579417,0.143575 -5.830083,3.304339 -10.255048,7.509064 -12.976568,12.330695 -0.969602,1.717812 -1.789483,3.734442 -2.258141,5.554268 -0.349423,1.356825 -0.405151,1.774738 -0.405151,3.038317 0,1.413485 0.01332,1.488754 0.378044,2.136602 1.158014,2.056929 3.362885,1.843196 5.89205,-0.571159 1.230184,-1.174339 2.49015,-2.828865 4.074382,-5.350282 1.664664,-2.649425 6.223657,-9.543531 6.857159,-10.369388 0.850896,-1.109261 2.769316,-2.966784 3.910646,-3.786511 2.562398,-1.840364 5.898549,-3.013032 8.509855,-2.991242 l 0.805606,0.0068 -0.87024,0.228846 c -4.619408,1.214768 -8.683355,5.246894 -11.692141,11.600589 -1.281884,2.706972 -1.984951,4.068742 -2.912021,5.64028 -2.32688,3.944455 -5.381171,7.965612 -7.337045,9.659657 -1.474469,1.277087 -3.360942,2.343412 -4.763863,2.692764 -0.945961,0.235561 -2.525824,0.246873 -3.238964,0.02319 z m 40.378193,-6.366328 c 0.0058,-0.14223 0.03468,-0.171159 0.07353,-0.07376 0.03516,0.08814 0.03083,0.19344 -0.0096,0.23401 -0.04044,0.04057 -0.06921,-0.03154 -0.06393,-0.160246 z m -6.06473,-9.291899 c 0.117144,-0.03071 0.308841,-0.03071 0.425987,0 0.117145,0.03071 0.02131,0.05584 -0.212993,0.05584 -0.234294,0 -0.330141,-0.02512 -0.212994,-0.05584 z M 16.117692,17.52375 c -0.801369,-0.809367 -1.559132,-1.528171 -1.683916,-1.597338 -0.187447,-0.103901 -0.317909,-0.03613 -0.750624,0.389864 l -0.523744,0.515623 -0.381165,-0.272263 c -0.209641,-0.149745 -0.364792,-0.317029 -0.344775,-0.371741 0.02001,-0.05471 0.72955,-0.810723 1.576745,-1.680028 l 1.540356,-1.580551 0.375678,0.376853 0.375682,0.376854 -0.568232,0.578709 -0.568229,0.578709 1.674704,1.622204 1.674704,1.622202 -0.470073,0.456241 -0.470076,0.45624 z m 45.523396,0.945086 c -0.334705,-0.232857 -0.902081,-0.729817 -1.260837,-1.104355 l -0.65228,-0.680978 0.491652,-0.582288 c 0.270408,-0.32026 1.168809,-1.256936 1.996446,-2.081503 l 1.504795,-1.499211 0.994443,1.022004 c 0.546946,0.562101 1.051161,1.171646 1.120483,1.354545 0.22752,0.600297 0.152567,1.041365 -0.244682,1.439856 -0.336349,0.337403 -0.426619,0.366491 -0.973687,0.31376 -0.562057,-0.05418 -0.765417,0.03509 -0.481258,0.211265 0.06694,0.0415 0.121711,0.318584 0.121711,0.615738 0,0.420699 -0.07628,0.62593 -0.344687,0.927258 -0.289775,0.325329 -0.449742,0.394968 -1.004116,0.437132 -0.595012,0.04526 -0.718875,0.0087 -1.267983,-0.373223 z m 1.42824,-1.106293 c 0.193147,-0.290169 0.07439,-0.707784 -0.325139,-1.143386 l -0.418287,-0.456049 -0.494545,0.482621 c -0.272,0.265442 -0.494547,0.545368 -0.494547,0.622058 0,0.177465 0.326342,0.474506 0.78162,0.711448 0.362895,0.18886 0.737819,0.103421 0.950898,-0.216692 z m 1.242827,-1.6138 c 0.517834,-0.199332 0.450124,-0.882336 -0.14064,-1.418641 -0.223588,-0.202977 -0.252332,-0.191554 -0.712299,0.283077 l -0.479307,0.494592 0.397481,0.358191 c 0.403594,0.3637 0.583313,0.418069 0.934765,0.282781 z m -45.680706,-1.704836 -1.707646,-2.271318 1.292321,-0.985207 1.292322,-0.9852063 0.28357,0.3554983 c 0.155962,0.195523 0.28384,0.392023 0.284172,0.436667 3.66e-4,0.04464 -0.265988,0.27748 -0.591827,0.517416 -0.922688,0.679434 -0.94273,0.724686 -0.543343,1.226797 0.189559,0.238317 0.387344,0.433305 0.439519,0.433307 0.05217,2e-6 0.372019,-0.219761 0.710768,-0.488363 0.338746,-0.268601 0.662024,-0.488366 0.718396,-0.488366 0.05637,0 0.221799,0.168074 0.36762,0.373498 0.2998,0.422349 0.364971,0.318857 -0.699379,1.110593 l -0.511683,0.380626 0.365392,0.532739 c 0.370504,0.540196 0.520869,0.633184 0.659644,0.407941 0.04229,-0.06864 0.383333,-0.35189 0.757877,-0.629447 l 0.680986,-0.504647 0.28385,0.331027 c 0.156116,0.182064 0.283849,0.37623 0.283849,0.431481 0,0.08471 -2.077981,1.736829 -2.516062,2.000421 -0.09086,0.05467 -0.763117,-0.739347 -1.850346,-2.185457 z m 38.305279,0.618439 c -0.6841,-0.357399 -1.291774,-1.064207 -1.396531,-1.624355 -0.04235,-0.226475 -0.01034,-0.634822 0.07104,-0.90744 0.130042,-0.435398 2.073621,-3.5416332 2.306249,-3.6858547 0.04865,-0.030166 0.314057,0.094978 0.589794,0.2781022 l 0.501342,0.332939 -1.087555,1.6252715 c -0.598156,0.893899 -1.093863,1.716292 -1.101571,1.827541 -0.04554,0.657193 0.174666,1.022561 0.73421,1.21823 0.624256,0.218298 0.963085,-0.06673 2.130238,-1.791998 0.597094,-0.882611 1.10489,-1.604749 1.128437,-1.604749 0.190701,0 0.990785,0.669533 0.929665,0.777972 -0.336966,0.59784 -1.851918,2.782385 -2.155945,3.108852 -0.768819,0.825562 -1.641116,0.972237 -2.649367,0.445489 z M 22.661772,11.122858 c -0.685387,-1.377006 -1.246157,-2.52587 -1.246157,-2.5530319 0,-0.068074 1.023719,-0.5596443 1.164252,-0.5590584 0.06255,2.56e-4 0.962646,0.4894252 2.000233,1.0870338 1.037585,0.5976074 1.90352,1.0702325 1.924299,1.0502785 0.02078,-0.01995 -0.321532,-0.755572 -0.760694,-1.6347031 -0.43916,-0.8791311 -0.798473,-1.6458018 -0.798473,-1.7037132 0,-0.1157662 0.948213,-0.5770302 1.022155,-0.4972333 0.104973,0.11328 2.518656,5.0234046 2.484189,5.0535476 -0.02067,0.01808 -0.271133,0.151015 -0.556584,0.295422 -0.601579,0.304333 -0.321213,0.409226 -2.811204,-1.051757 -0.96138,-0.564084 -1.765924,-1.0075892 -1.787876,-0.9855682 -0.02196,0.022018 0.338087,0.7804882 0.800088,1.6854832 0.462003,0.904993 0.84208,1.685533 0.844618,1.734532 0.0038,0.0726 -0.868102,0.582416 -0.996031,0.582416 -0.02016,0 -0.597427,-1.126641 -1.282815,-2.503648 z m 29.952258,0.997684 c -0.747598,-0.346851 -1.394232,-0.665784 -1.436963,-0.708738 -0.04273,-0.04295 0.316595,-0.949486 0.798504,-2.014512 0.481909,-1.0650252 1.003745,-2.2228689 1.159634,-2.5729834 l 0.283438,-0.6365735 0.518444,0.2328406 c 0.285145,0.1280627 0.534012,0.2796849 0.553036,0.336939 0.01903,0.057255 -0.343296,0.9310647 -0.805157,1.9417994 -0.46186,1.0107348 -0.874652,1.9480169 -0.917313,2.0828509 -0.06682,0.211164 0.04935,0.300661 0.837888,0.645544 0.503501,0.220218 0.915456,0.450645 0.915456,0.512063 0,0.182165 -0.363943,0.832965 -0.459542,0.821752 -0.04849,-0.0057 -0.699829,-0.294129 -1.447425,-0.640982 z M 29.637268,10.177419 C 29.536505,9.8248797 29.211348,8.5913671 28.914693,7.4362815 L 28.37532,5.3361252 28.993146,5.1544477 c 0.733429,-0.2156702 0.606556,-0.2846573 2.224505,1.2095864 1.506632,1.3914376 1.801489,1.645845 1.85052,1.596661 0.0218,-0.021871 -0.160572,-0.8205428 -0.405265,-1.774837 -0.251655,-0.9814486 -0.398758,-1.7798892 -0.338672,-1.8382412 0.05842,-0.056738 0.307886,-0.1403188 0.554362,-0.1857366 l 0.44814,-0.082572 0.170774,0.5919643 c 0.09392,0.3255815 0.410439,1.5430314 0.703362,2.7054437 0.589196,2.3381194 0.598322,2.2603028 -0.282595,2.4095975 -0.45231,0.076652 -0.497222,0.048911 -1.706444,-1.054075 C 31.528784,8.109196 30.738713,7.3797991 30.456121,7.111356 l -0.513803,-0.4880788 0.483376,1.8584616 c 0.265856,1.0221526 0.483376,1.9085332 0.483376,1.9697312 0,0.095 -0.735535,0.364197 -1.000717,0.366252 -0.04833,3.79e-4 -0.170323,-0.28776 -0.271085,-0.6403 z m 18.938529,0.462279 c -1.368608,-0.332146 -2.209435,-1.3176663 -2.209435,-2.5896491 0,-1.9372185 1.49897,-3.3881809 3.281505,-3.1764062 0.54155,0.064345 1.830356,0.5260997 1.830356,0.6557908 0,0.029145 -0.05962,0.2904997 -0.132486,0.5807865 L 51.213251,6.6380144 50.706754,6.356636 C 49.91723,5.918023 49.386139,5.8650187 48.771496,6.1634926 c -0.714698,0.3470609 -0.997672,0.8576369 -1.002011,1.8079483 -0.0031,0.671856 0.03601,0.796096 0.355889,1.1312948 0.406496,0.4259704 1.108497,0.6592541 1.788178,0.5942338 0.43779,-0.041883 0.45645,-0.02912 0.385973,0.264005 -0.182067,0.7572605 -0.262099,0.8577825 -0.674383,0.8470415 -0.219214,-0.0057 -0.69142,-0.08145 -1.049345,-0.168318 z M 35.733947,9.2934409 c -0.16539,-0.4323508 -0.08811,-0.7947815 0.169464,-0.7947815 0.223494,0 0.241205,-0.056492 0.18181,-0.5799348 -0.109538,-0.9653268 -0.307713,-2.9431803 -0.307713,-3.0709896 0,-0.065945 -0.104037,-0.099791 -0.231198,-0.075225 -0.18605,0.035939 -0.242093,-0.042905 -0.287001,-0.4038067 -0.0307,-0.2466597 -0.03963,-0.46792 -0.01985,-0.4916911 0.01978,-0.023766 0.487139,-0.093859 1.038586,-0.155744 1.100469,-0.1235053 1.198147,-0.080037 1.201558,0.5347151 0.0015,0.258288 -0.05602,0.3357513 -0.249015,0.3357513 -0.224848,0 -0.243713,0.053846 -0.181804,0.5188899 0.07201,0.5409994 0.310972,2.9667126 0.310972,3.1567926 0,0.060037 0.102695,0.1091569 0.228208,0.1091569 0.159179,0 0.251677,0.1177231 0.305799,0.3891668 0.04267,0.2140419 0.03583,0.4282757 -0.01521,0.4760751 -0.05104,0.047803 -0.536874,0.1249366 -1.079626,0.1714166 -0.858849,0.073551 -0.996954,0.058018 -1.064971,-0.1197908 z m 3.451469,-0.099643 C 38.78063,9.0553277 38.75762,9.0168477 38.723109,8.4207086 l -0.03632,-0.6273662 0.574217,0.2916136 c 0.66094,0.3356578 1.333393,0.3752923 1.722989,0.1015508 C 41.541898,7.7945154 41.299459,7.4195135 40.098245,6.8164366 39.147092,6.3389043 38.919264,6.070508 38.849839,5.3457338 38.733913,4.1355197 39.493491,3.4895541 41.011077,3.507756 c 1.277636,0.015323 1.393228,0.077169 1.437419,0.7690129 0.0339,0.5307028 0.0153,0.5812185 -0.182567,0.4958634 -1.013715,-0.4372911 -2.106828,-0.3115717 -2.106828,0.2423064 0,0.3462093 0.241773,0.5557453 1.1908,1.0320222 0.872851,0.438048 1.242268,0.9235766 1.242963,1.6336431 0.0011,1.086672 -0.76809,1.6706917 -2.190342,1.6631225 -0.435116,-0.00234 -0.982816,-0.069785 -1.217109,-0.1499324 z"
     id="path898"
     inkscape:connector-curvature="0" />
</svg>
